# This file uses centimeters as units for non-parametric coordinates.

v 0.204353 0.004371 -0.000000
v 0.204353 0.000032 0.004339
v 0.204353 -0.004307 0.000000
v 0.204353 0.000032 -0.004339
v 0.207128 0.007850 -0.000000
v 0.207128 0.000032 0.007818
v 0.207128 -0.007786 0.000000
v 0.207128 0.000032 -0.007818
v 0.211138 0.009781 -0.000000
v 0.211138 0.000032 0.009749
v 0.211138 -0.009717 0.000000
v 0.211138 0.000032 -0.009749
v 0.215588 0.009781 -0.000000
v 0.215588 0.000032 0.009749
v 0.215588 -0.009717 0.000000
v 0.215588 0.000032 -0.009749
v 0.219598 0.007850 -0.000000
v 0.219598 0.000032 0.007818
v 0.219598 -0.007786 0.000000
v 0.219598 0.000032 -0.007818
v 0.222373 0.004371 -0.000000
v 0.222373 0.000032 0.004339
v 0.222373 -0.004307 0.000000
v 0.222373 0.000032 -0.004339
v 0.203363 0.000032 -0.000000
v 0.223363 0.000032 0.000000
vt 0.000000 0.142857
vt 0.250000 0.142857
vt 0.500000 0.142857
vt 0.750000 0.142857
vt 1.000000 0.142857
vt 0.000000 0.285714
vt 0.250000 0.285714
vt 0.500000 0.285714
vt 0.750000 0.285714
vt 1.000000 0.285714
vt 0.000000 0.428571
vt 0.250000 0.428571
vt 0.500000 0.428571
vt 0.750000 0.428571
vt 1.000000 0.428571
vt 0.000000 0.571429
vt 0.250000 0.571429
vt 0.500000 0.571429
vt 0.750000 0.571429
vt 1.000000 0.571429
vt 0.000000 0.714286
vt 0.250000 0.714286
vt 0.500000 0.714286
vt 0.750000 0.714286
vt 1.000000 0.714286
vt 0.000000 0.857143
vt 0.250000 0.857143
vt 0.500000 0.857143
vt 0.750000 0.857143
vt 1.000000 0.857143
vt 0.125000 0.000000
vt 0.375000 0.000000
vt 0.625000 0.000000
vt 0.875000 0.000000
vt 0.125000 1.000000
vt 0.375000 1.000000
vt 0.625000 1.000000
vt 0.875000 1.000000
vn -0.663442 0.529077 0.529077
vn -0.663442 0.529077 0.529077
vn -0.663442 0.529077 0.529077
vn -0.663442 0.529077 0.529077
vn -0.663442 -0.529077 0.529077
vn -0.663442 -0.529077 0.529077
vn -0.663442 -0.529077 0.529077
vn -0.663442 -0.529077 0.529077
vn -0.663442 -0.529077 -0.529077
vn -0.663442 -0.529077 -0.529077
vn -0.663442 -0.529077 -0.529077
vn -0.663442 -0.529077 -0.529077
vn -0.663442 0.529077 -0.529077
vn -0.663442 0.529077 -0.529077
vn -0.663442 0.529077 -0.529077
vn -0.663442 0.529077 -0.529077
vn -0.322348 0.669363 0.669362
vn -0.322348 0.669363 0.669362
vn -0.322348 0.669362 0.669362
vn -0.322348 0.669362 0.669362
vn -0.322348 -0.669362 0.669362
vn -0.322348 -0.669362 0.669362
vn -0.322348 -0.669362 0.669362
vn -0.322348 -0.669362 0.669362
vn -0.322348 -0.669362 -0.669362
vn -0.322348 -0.669362 -0.669362
vn -0.322348 -0.669362 -0.669362
vn -0.322348 -0.669362 -0.669362
vn -0.322348 0.669362 -0.669362
vn -0.322348 0.669362 -0.669362
vn -0.322348 0.669362 -0.669362
vn -0.322348 0.669362 -0.669362
vn -0.000000 0.707107 0.707107
vn -0.000000 0.707107 0.707107
vn -0.000000 0.707107 0.707107
vn -0.000000 0.707107 0.707107
vn -0.000000 -0.707107 0.707107
vn -0.000000 -0.707107 0.707107
vn -0.000000 -0.707107 0.707107
vn -0.000000 -0.707107 0.707107
vn 0.000000 -0.707107 -0.707107
vn 0.000000 -0.707107 -0.707107
vn 0.000000 -0.707107 -0.707107
vn 0.000000 -0.707107 -0.707107
vn 0.000000 0.707107 -0.707107
vn 0.000000 0.707107 -0.707107
vn 0.000000 0.707107 -0.707107
vn 0.000000 0.707107 -0.707107
vn 0.322348 0.669362 0.669362
vn 0.322348 0.669362 0.669362
vn 0.322348 0.669363 0.669362
vn 0.322348 0.669363 0.669362
vn 0.322348 -0.669362 0.669362
vn 0.322348 -0.669362 0.669362
vn 0.322348 -0.669362 0.669362
vn 0.322348 -0.669362 0.669362
vn 0.322348 -0.669362 -0.669362
vn 0.322348 -0.669362 -0.669362
vn 0.322348 -0.669362 -0.669362
vn 0.322348 -0.669362 -0.669362
vn 0.322348 0.669362 -0.669362
vn 0.322348 0.669362 -0.669362
vn 0.322348 0.669362 -0.669362
vn 0.322348 0.669362 -0.669362
vn 0.663442 0.529077 0.529077
vn 0.663442 0.529077 0.529077
vn 0.663442 0.529077 0.529077
vn 0.663442 0.529077 0.529077
vn 0.663442 -0.529077 0.529077
vn 0.663442 -0.529077 0.529077
vn 0.663442 -0.529077 0.529077
vn 0.663442 -0.529077 0.529077
vn 0.663442 -0.529077 -0.529077
vn 0.663442 -0.529077 -0.529077
vn 0.663442 -0.529077 -0.529077
vn 0.663442 -0.529077 -0.529077
vn 0.663442 0.529077 -0.529077
vn 0.663442 0.529077 -0.529077
vn 0.663442 0.529077 -0.529077
vn 0.663442 0.529077 -0.529077
vn -0.951652 0.217208 0.217208
vn -0.951652 0.217208 0.217208
vn -0.951652 0.217208 0.217208
vn -0.951652 -0.217208 0.217208
vn -0.951652 -0.217208 0.217208
vn -0.951652 -0.217208 0.217208
vn -0.951652 -0.217208 -0.217208
vn -0.951652 -0.217208 -0.217208
vn -0.951652 -0.217208 -0.217208
vn -0.951652 0.217208 -0.217208
vn -0.951652 0.217208 -0.217208
vn -0.951652 0.217208 -0.217208
vn 0.951652 0.217208 0.217208
vn 0.951652 0.217208 0.217208
vn 0.951652 0.217208 0.217208
vn 0.951652 -0.217208 0.217208
vn 0.951652 -0.217208 0.217208
vn 0.951652 -0.217208 0.217208
vn 0.951652 -0.217208 -0.217208
vn 0.951652 -0.217208 -0.217208
vn 0.951652 -0.217208 -0.217208
vn 0.951652 0.217208 -0.217208
vn 0.951652 0.217208 -0.217208
vn 0.951652 0.217208 -0.217208
f 1/1/1 2/2/2 6/7/3 5/6/4
f 2/2/5 3/3/6 7/8/7 6/7/8
f 3/3/9 4/4/10 8/9/11 7/8/12
f 4/4/13 1/5/14 5/10/15 8/9/16
f 5/6/17 6/7/18 10/12/19 9/11/20
f 6/7/21 7/8/22 11/13/23 10/12/24
f 7/8/25 8/9/26 12/14/27 11/13/28
f 8/9/29 5/10/30 9/15/31 12/14/32
f 9/11/33 10/12/34 14/17/35 13/16/36
f 10/12/37 11/13/38 15/18/39 14/17/40
f 11/13/41 12/14/42 16/19/43 15/18/44
f 12/14/45 9/15/46 13/20/47 16/19/48
f 13/16/49 14/17/50 18/22/51 17/21/52
f 14/17/53 15/18/54 19/23/55 18/22/56
f 15/18/57 16/19/58 20/24/59 19/23/60
f 16/19/61 13/20/62 17/25/63 20/24/64
f 17/21/65 18/22/66 22/27/67 21/26/68
f 18/22/69 19/23/70 23/28/71 22/27/72
f 19/23/73 20/24/74 24/29/75 23/28/76
f 20/24/77 17/25/78 21/30/79 24/29/80
f 2/2/81 1/1/82 25/31/83
f 3/3/84 2/2/85 25/32/86
f 4/4/87 3/3/88 25/33/89
f 1/5/90 4/4/91 25/34/92
f 21/26/93 22/27/94 26/35/95
f 22/27/96 23/28/97 26/36/98
f 23/28/99 24/29/100 26/37/101
f 24/29/102 21/30/103 26/38/104
