# This file uses centimeters as units for non-parametric coordinates.

v 0.201670 -0.105652 -0.017090
v 0.201670 -0.103721 -0.008630
v 0.201670 -0.109131 -0.001845
v 0.201670 -0.117809 -0.001845
v 0.201670 -0.123219 -0.008630
v 0.201670 -0.121288 -0.017090
v 0.201670 -0.113470 -0.020855
v 0.221625 -0.113470 -0.010855
vt 0.655872 0.054542
vt 0.444370 0.006268
vt 0.274758 0.141529
vt 0.274758 0.358471
vt 0.444370 0.493732
vt 0.655872 0.445458
vt 0.750000 0.250000
vt 0.250000 0.500000
vt 0.321429 0.500000
vt 0.392857 0.500000
vt 0.464286 0.500000
vt 0.535714 0.500000
vt 0.607143 0.500000
vt 0.678571 0.500000
vt 0.750000 0.500000
vt 0.500000 1.000000
vn -1.000000 0.000000 0.000000
vn -1.000000 0.000000 0.000000
vn -1.000000 0.000000 0.000000
vn -1.000000 0.000000 0.000000
vn -1.000000 0.000000 0.000000
vn -1.000000 0.000000 0.000000
vn -1.000000 0.000000 0.000000
vn 0.411488 0.888564 -0.202809
vn 0.411488 0.888564 -0.202809
vn 0.411488 0.888564 -0.202809
vn 0.411488 0.712573 0.568258
vn 0.411488 0.712573 0.568258
vn 0.411488 0.712573 0.568258
vn 0.411488 0.000000 0.911415
vn 0.411488 0.000000 0.911415
vn 0.411488 0.000000 0.911415
vn 0.411488 -0.712573 0.568258
vn 0.411488 -0.712573 0.568258
vn 0.411488 -0.712573 0.568258
vn 0.411488 -0.888564 -0.202809
vn 0.411488 -0.888564 -0.202809
vn 0.411489 -0.888564 -0.202809
vn 0.411488 -0.395448 -0.821157
vn 0.411488 -0.395448 -0.821157
vn 0.411488 -0.395448 -0.821157
vn 0.411488 0.395448 -0.821157
vn 0.411488 0.395448 -0.821157
vn 0.411488 0.395448 -0.821157
f 1/1/1 7/7/2 6/6/3 5/5/4 4/4/5 3/3/6 2/2/7
f 1/8/8 2/9/9 8/16/10
f 2/9/11 3/10/12 8/16/13
f 3/10/14 4/11/15 8/16/16
f 4/11/17 5/12/18 8/16/19
f 5/12/20 6/13/21 8/16/22
f 6/13/23 7/14/24 8/16/25
f 7/14/26 1/15/27 8/16/28
