# This file uses centimeters as units for non-parametric coordinates.

g default
v -0.000439 0.001189 -0.002439
v -0.000439 0.000735 0.006385
v -0.000439 -0.000735 0.006385
v -0.000439 -0.001189 -0.002439
v -0.000439 -0.000000 -0.007892
v 0.000285 0.002261 -0.004639
v 0.000285 0.001397 0.012145
v 0.000285 -0.001397 0.012145
v 0.000285 -0.002261 -0.004639
v 0.000285 -0.000000 -0.015012
v 0.031287 0.004447 -0.006385
v 0.031287 0.001923 0.012458
v 0.031287 -0.001923 0.012458
v 0.031287 -0.004447 -0.006385
v 0.031287 -0.000000 -0.020662
v 0.070352 0.010684 -0.007506
v 0.070352 0.002261 0.009180
v 0.070352 -0.002261 0.009180
v 0.070352 -0.010684 -0.007506
v 0.070352 -0.000000 -0.024290
v 0.113656 0.003846 -0.007892
v 0.113656 0.002377 0.005039
v 0.113656 -0.002377 0.005039
v 0.113656 -0.003846 -0.007892
v 0.113656 0.000000 -0.025540
v 0.156960 0.003658 -0.007506
v 0.156960 0.002261 0.019651
v 0.156960 -0.002261 0.019651
v 0.156960 -0.003658 -0.007506
v 0.156960 0.000000 -0.024290
v 0.196026 0.003112 -0.006385
v 0.196026 0.001923 0.024318
v 0.196026 -0.001923 0.024318
v 0.196026 -0.003112 -0.006385
v 0.196026 0.000000 -0.022362
v 0.197901 0.002261 -0.004639
v 0.197901 0.001397 0.012145
v 0.197901 -0.001397 0.012145
v 0.197901 -0.002261 -0.004639
v 0.197901 0.000000 -0.015012
v 0.198678 0.001189 -0.002439
v 0.198678 0.000735 0.006385
v 0.198678 -0.000735 0.006385
v 0.198678 -0.001189 -0.002439
v 0.198678 0.000000 -0.007892
v -0.000929 -0.000000 -0.000000
v 0.200290 0.000000 0.000000
vt -2.527229 -21.726585
vt -1.316337 -21.726585
vt -0.105446 -21.726585
vt 1.105446 -21.726585
vt 2.316337 -21.726585
vt 3.527229 -21.726585
vt -2.527229 -16.169939
vt -1.316337 -16.169939
vt -0.105446 -16.169939
vt 1.105446 -16.169939
vt 2.316337 -16.169939
vt 3.527229 -16.169939
vt -2.527229 -10.613293
vt -1.316337 -10.613293
vt -0.105446 -10.613293
vt 1.105446 -10.613293
vt 2.316337 -10.613293
vt 3.527229 -10.613293
vt -2.527229 -5.056646
vt -1.316337 -5.056646
vt -0.105446 -5.056646
vt 1.105446 -5.056646
vt 2.316337 -5.056646
vt 3.527229 -5.056646
vt -2.527229 0.500000
vt -1.316337 0.500000
vt -0.105446 0.500000
vt 1.105446 0.500000
vt 2.316337 0.500000
vt 3.527229 0.500000
vt -2.527229 6.056648
vt -1.316337 6.056648
vt -0.105446 6.056648
vt 1.105446 6.056648
vt 2.316337 6.056648
vt 3.527229 6.056648
vt -2.527229 11.613296
vt -1.316337 11.613296
vt -0.105446 11.613296
vt 1.105446 11.613296
vt 2.316337 11.613296
vt 3.527229 11.613296
vt -2.527229 17.169943
vt -1.316337 17.169943
vt -0.105446 17.169943
vt 1.105446 17.169943
vt 2.316337 17.169943
vt 3.527229 17.169943
vt -2.527229 22.726591
vt -1.316337 22.726591
vt -0.105446 22.726591
vt 1.105446 22.726591
vt 2.316337 22.726591
vt 3.527229 22.726591
vt -1.921783 -27.283232
vt -0.710891 -27.283232
vt 0.500000 -27.283232
vt 1.710891 -27.283232
vt 2.921783 -27.283232
vt -1.921783 28.283232
vt -0.710891 28.283232
vt 0.500000 28.283232
vt 1.710891 28.283232
vt 2.921783 28.283232
vn -0.798002 0.601859 0.030966
vn -0.798002 0.601859 0.030966
vn -0.798002 0.601859 0.030966
vn -0.798002 0.601859 0.030966
vn -0.992207 0.000000 0.124597
vn -0.992207 0.000000 0.124597
vn -0.992207 0.000000 0.124597
vn -0.992207 0.000000 0.124597
vn -0.798002 -0.601859 0.030966
vn -0.798002 -0.601859 0.030966
vn -0.798002 -0.601859 0.030966
vn -0.798002 -0.601859 0.030966
vn -0.902553 -0.420703 -0.091693
vn -0.902553 -0.420703 -0.091693
vn -0.902553 -0.420703 -0.091693
vn -0.902553 -0.420703 -0.091693
vn -0.902553 0.420703 -0.091691
vn -0.902553 0.420703 -0.091691
vn -0.902553 0.420703 -0.091691
vn -0.902553 0.420703 -0.091691
vn -0.041325 0.994659 0.094580
vn -0.041325 0.994659 0.094580
vn -0.041325 0.994659 0.094580
vn -0.041325 0.994659 0.094580
vn -0.010102 0.000001 0.999949
vn -0.010102 0.000001 0.999949
vn -0.010102 0.000001 0.999949
vn -0.010102 0.000001 0.999949
vn -0.041325 -0.994659 0.094580
vn -0.041325 -0.994659 0.094580
vn -0.041325 -0.994659 0.094580
vn -0.041325 -0.994659 0.094580
vn -0.065209 -0.962856 -0.262024
vn -0.065209 -0.962856 -0.262024
vn -0.065208 -0.962856 -0.262024
vn -0.065209 -0.962856 -0.262024
vn -0.065209 0.962856 -0.262024
vn -0.065209 0.962856 -0.262024
vn -0.065209 0.962856 -0.262024
vn -0.065209 0.962856 -0.262024
vn -0.063704 0.953725 0.293856
vn -0.063704 0.953725 0.293856
vn -0.063704 0.953725 0.293856
vn -0.063704 0.953725 0.293856
vn 0.083611 0.000000 0.996498
vn 0.083611 0.000000 0.996498
vn 0.083611 0.000000 0.996498
vn 0.083611 0.000000 0.996498
vn -0.063704 -0.953725 0.293856
vn -0.063704 -0.953725 0.293856
vn -0.063704 -0.953725 0.293856
vn -0.063704 -0.953725 0.293856
vn -0.097903 -0.894685 -0.435836
vn -0.097903 -0.894685 -0.435836
vn -0.097903 -0.894685 -0.435836
vn -0.097903 -0.894685 -0.435836
vn -0.097903 0.894685 -0.435836
vn -0.097903 0.894685 -0.435836
vn -0.097903 0.894685 -0.435836
vn -0.097903 0.894685 -0.435836
vn 0.089801 0.944663 0.315511
vn 0.089801 0.944663 0.315511
vn 0.089801 0.944663 0.315511
vn 0.089801 0.944663 0.315511
vn 0.095194 0.000000 0.995459
vn 0.095194 0.000000 0.995459
vn 0.095194 0.000000 0.995459
vn 0.095194 0.000000 0.995459
vn 0.089801 -0.944663 0.315511
vn 0.089801 -0.944663 0.315511
vn 0.089801 -0.944663 0.315511
vn 0.089801 -0.944663 0.315511
vn 0.065250 -0.919360 -0.387969
vn 0.065250 -0.919360 -0.387969
vn 0.065250 -0.919360 -0.387969
vn 0.065250 -0.919360 -0.387969
vn 0.065250 0.919360 -0.387969
vn 0.065250 0.919360 -0.387969
vn 0.065250 0.919360 -0.387969
vn 0.065250 0.919360 -0.387969
vn -0.008842 0.997414 0.071317
vn -0.008842 0.997414 0.071318
vn -0.008842 0.997415 0.071318
vn -0.008842 0.997414 0.071318
vn -0.319708 0.000000 0.947516
vn -0.319708 0.000000 0.947516
vn -0.319708 0.000000 0.947516
vn -0.319708 0.000000 0.947516
vn -0.008842 -0.997415 0.071318
vn -0.008842 -0.997415 0.071318
vn -0.008842 -0.997415 0.071318
vn -0.008842 -0.997415 0.071318
vn 0.006147 -0.977044 -0.212947
vn 0.006147 -0.977044 -0.212947
vn 0.006147 -0.977044 -0.212947
vn 0.006147 -0.977044 -0.212947
vn 0.006147 0.977044 -0.212947
vn 0.006147 0.977044 -0.212947
vn 0.006147 0.977044 -0.212947
vn 0.006147 0.977044 -0.212947
vn 0.007995 0.998971 0.044645
vn 0.007995 0.998971 0.044645
vn 0.007995 0.998971 0.044645
vn 0.007995 0.998971 0.044645
vn -0.118625 0.000000 0.992939
vn -0.118625 0.000000 0.992939
vn -0.118625 0.000000 0.992939
vn -0.118625 0.000000 0.992939
vn 0.007995 -0.998971 0.044645
vn 0.007995 -0.998971 0.044645
vn 0.007995 -0.998971 0.044645
vn 0.007995 -0.998971 0.044645
vn 0.014743 -0.979203 -0.202345
vn 0.014743 -0.979203 -0.202345
vn 0.014743 -0.979203 -0.202345
vn 0.014743 -0.979203 -0.202345
vn 0.014743 0.979203 -0.202345
vn 0.014743 0.979203 -0.202345
vn 0.014743 0.979203 -0.202345
vn 0.014743 0.979203 -0.202345
vn 0.437658 0.898303 0.038820
vn 0.437658 0.898303 0.038820
vn 0.437658 0.898303 0.038820
vn 0.437658 0.898303 0.038820
vn 0.988340 0.000000 0.152266
vn 0.988340 0.000000 0.152266
vn 0.988340 0.000000 0.152266
vn 0.988340 0.000000 0.152266
vn 0.437658 -0.898303 0.038820
vn 0.437658 -0.898303 0.038820
vn 0.437658 -0.898303 0.038820
vn 0.437658 -0.898303 0.038820
vn 0.577166 -0.800164 -0.163147
vn 0.577166 -0.800164 -0.163147
vn 0.577166 -0.800164 -0.163147
vn 0.577166 -0.800164 -0.163147
vn 0.577166 0.800164 -0.163147
vn 0.577166 0.800164 -0.163147
vn 0.577166 0.800164 -0.163147
vn 0.577166 0.800164 -0.163147
vn 0.776654 0.629096 0.032368
vn 0.776654 0.629096 0.032368
vn 0.776654 0.629096 0.032368
vn 0.776654 0.629096 0.032368
vn 0.991028 0.000000 0.133657
vn 0.991028 0.000000 0.133657
vn 0.991028 0.000000 0.133657
vn 0.991028 0.000000 0.133657
vn 0.776654 -0.629096 0.032368
vn 0.776654 -0.629096 0.032368
vn 0.776654 -0.629096 0.032368
vn 0.776654 -0.629096 0.032368
vn 0.889982 -0.445536 -0.097106
vn 0.889982 -0.445536 -0.097106
vn 0.889982 -0.445536 -0.097106
vn 0.889982 -0.445536 -0.097106
vn 0.889982 0.445536 -0.097105
vn 0.889982 0.445536 -0.097105
vn 0.889982 0.445536 -0.097105
vn 0.889982 0.445536 -0.097105
vn -0.907927 0.418575 0.021535
vn -0.907927 0.418575 0.021535
vn -0.907927 0.418575 0.021535
vn -0.997067 0.000000 0.076536
vn -0.997067 0.000000 0.076536
vn -0.997067 0.000000 0.076536
vn -0.907927 -0.418575 0.021535
vn -0.907927 -0.418575 0.021535
vn -0.907927 -0.418575 0.021535
vn -0.960013 -0.273534 -0.059617
vn -0.960013 -0.273534 -0.059617
vn -0.960013 -0.273534 -0.059617
vn -0.960013 0.273534 -0.059617
vn -0.960013 0.273534 -0.059617
vn -0.960013 0.273534 -0.059617
vn 0.550010 0.834055 0.042913
vn 0.550010 0.834055 0.042913
vn 0.550010 0.834055 0.042913
vn 0.969573 0.000000 0.244803
vn 0.969573 0.000000 0.244803
vn 0.969573 0.000000 0.244803
vn 0.550010 -0.834055 0.042914
vn 0.550010 -0.834055 0.042914
vn 0.550010 -0.834055 0.042914
vn 0.721671 -0.676358 -0.147413
vn 0.721671 -0.676358 -0.147413
vn 0.721671 -0.676358 -0.147413
vn 0.721672 0.676358 -0.147413
vn 0.721672 0.676358 -0.147413
vn 0.721671 0.676358 -0.147413
s off
g Light_Gun
f 1/1/1 2/2/2 7/8/3 6/7/4
f 2/2/5 3/3/6 8/9/7 7/8/8
f 3/3/9 4/4/10 9/10/11 8/9/12
f 4/4/13 5/5/14 10/11/15 9/10/16
f 5/5/17 1/6/18 6/12/19 10/11/20
f 6/7/21 7/8/22 12/14/23 11/13/24
f 7/8/25 8/9/26 13/15/27 12/14/28
f 8/9/29 9/10/30 14/16/31 13/15/32
f 9/10/33 10/11/34 15/17/35 14/16/36
f 10/11/37 6/12/38 11/18/39 15/17/40
f 11/13/41 12/14/42 17/20/43 16/19/44
f 12/14/45 13/15/46 18/21/47 17/20/48
f 13/15/49 14/16/50 19/22/51 18/21/52
f 14/16/53 15/17/54 20/23/55 19/22/56
f 15/17/57 11/18/58 16/24/59 20/23/60
f 16/19/61 17/20/62 22/26/63 21/25/64
f 17/20/65 18/21/66 23/27/67 22/26/68
f 18/21/69 19/22/70 24/28/71 23/27/72
f 19/22/73 20/23/74 25/29/75 24/28/76
f 20/23/77 16/24/78 21/30/79 25/29/80
f 21/25/81 22/26/82 27/32/83 26/31/84
f 22/26/85 23/27/86 28/33/87 27/32/88
f 23/27/89 24/28/90 29/34/91 28/33/92
f 24/28/93 25/29/94 30/35/95 29/34/96
f 25/29/97 21/30/98 26/36/99 30/35/100
f 26/31/101 27/32/102 32/38/103 31/37/104
f 27/32/105 28/33/106 33/39/107 32/38/108
f 28/33/109 29/34/110 34/40/111 33/39/112
f 29/34/113 30/35/114 35/41/115 34/40/116
f 30/35/117 26/36/118 31/42/119 35/41/120
f 31/37/121 32/38/122 37/44/123 36/43/124
f 32/38/125 33/39/126 38/45/127 37/44/128
f 33/39/129 34/40/130 39/46/131 38/45/132
f 34/40/133 35/41/134 40/47/135 39/46/136
f 35/41/137 31/42/138 36/48/139 40/47/140
f 36/43/141 37/44/142 42/50/143 41/49/144
f 37/44/145 38/45/146 43/51/147 42/50/148
f 38/45/149 39/46/150 44/52/151 43/51/152
f 39/46/153 40/47/154 45/53/155 44/52/156
f 40/47/157 36/48/158 41/54/159 45/53/160
f 2/2/161 1/1/162 46/55/163
f 3/3/164 2/2/165 46/56/166
f 4/4/167 3/3/168 46/57/169
f 5/5/170 4/4/171 46/58/172
f 1/6/173 5/5/174 46/59/175
f 41/49/176 42/50/177 47/60/178
f 42/50/179 43/51/180 47/61/181
f 43/51/182 44/52/183 47/62/184
f 44/52/185 45/53/186 47/63/187
f 45/53/188 41/54/189 47/64/190
