# This file uses centimeters as units for non-parametric coordinates.

g default
v 0.124805 0.199747 0.080399
v -0.087683 0.224132 0.080399
v -0.245613 0.096384 0.049347
v -0.245613 -0.108506 0.049347
v -0.087683 -0.236254 0.080399
v 0.124805 -0.211870 0.080399
v 0.222998 -0.006060 0.080399
v 0.166984 0.256708 0.919057
v -0.207588 0.287843 0.820635
v -0.303659 0.124739 0.066791
v -0.303659 -0.136860 0.066791
v -0.207588 -0.299965 0.820635
v 0.166983 -0.268830 0.919057
v 0.300952 -0.006060 0.873323
v 0.198882 0.331815 0.926365
v -0.224278 0.415264 0.831149
v -0.419752 0.181446 0.066791
v -0.419752 -0.193568 0.066791
v -0.224278 -0.427386 0.831149
v 0.198882 -0.343937 0.926365
v 0.390914 -0.006060 0.920125
v 0.269930 0.382907 0.080399
v -0.145028 0.478973 0.080399
v -0.477799 0.209799 0.049347
v -0.477799 -0.221922 0.049347
v -0.145028 -0.491096 0.080399
v 0.269930 -0.395029 0.080399
v 0.454603 -0.006060 0.080399
v 0.229761 0.331815 0.000027
v -0.130691 0.415264 0.000027
v -0.419752 0.181446 0.000027
v -0.419752 -0.193568 0.000027
v -0.130691 -0.427384 0.000027
v 0.229761 -0.343937 0.000027
v 0.390177 -0.006060 0.000027
v 0.149422 0.229631 0.000027
v -0.102019 0.287843 0.000027
v -0.303659 0.124739 0.000027
v -0.303659 -0.136860 0.000027
v -0.102019 -0.299965 0.000027
v 0.149422 -0.241754 0.000027
v 0.261324 -0.006060 0.000027
vt 0.142857 1.000000
vt 0.000000 1.000000
vt 0.000000 0.833333
vt 0.142857 0.833333
vt 0.285714 1.000000
vt 0.285714 0.833333
vt 0.428571 1.000000
vt 0.428571 0.833333
vt 0.571429 1.000000
vt 0.571429 0.833333
vt 0.714286 1.000000
vt 0.714286 0.833333
vt 0.857143 1.000000
vt 0.857143 0.833333
vt 1.000000 1.000000
vt 1.000000 0.833333
vt 0.000000 0.666667
vt 0.142857 0.666667
vt 0.285714 0.666667
vt 0.428571 0.666667
vt 0.571429 0.666667
vt 0.714286 0.666667
vt 0.857143 0.666667
vt 1.000000 0.666667
vt 0.000000 0.500000
vt 0.142857 0.500000
vt 0.285714 0.500000
vt 0.428571 0.500000
vt 0.571429 0.500000
vt 0.714286 0.500000
vt 0.857143 0.500000
vt 1.000000 0.500000
vt 0.000000 0.333333
vt 0.142857 0.333333
vt 0.285714 0.333333
vt 0.428571 0.333333
vt 0.571429 0.333333
vt 0.714286 0.333333
vt 0.857143 0.333333
vt 1.000000 0.333333
vt 0.000000 0.166667
vt 0.142857 0.166667
vt 0.285714 0.166667
vt 0.428571 0.166667
vt 0.571429 0.166667
vt 0.714286 0.166667
vt 0.857143 0.166667
vt 1.000000 0.166667
vt 0.000000 -0.000000
vt 0.142857 -0.000000
vt 0.285714 -0.000000
vt 0.428571 -0.000000
vt 0.571429 -0.000000
vt 0.714286 -0.000000
vt 0.857143 -0.000000
vt 1.000000 -0.000000
vn -0.125141 -0.990440 0.058036
vn -0.125141 -0.990440 0.058036
vn -0.125141 -0.990440 0.058036
vn -0.125141 -0.990440 0.058036
vn 0.401235 -0.907833 0.121862
vn 0.401235 -0.907833 0.121862
vn 0.401235 -0.907833 0.121862
vn 0.401235 -0.907833 0.121862
vn 0.385074 -0.000000 0.922886
vn 0.385074 -0.000000 0.922886
vn 0.385074 -0.000000 0.922886
vn 0.385074 -0.000000 0.922886
vn 0.401235 0.907833 0.121862
vn 0.401235 0.907833 0.121862
vn 0.401235 0.907833 0.121862
vn 0.401235 0.907833 0.121862
vn -0.125142 0.990440 0.058035
vn -0.125142 0.990440 0.058035
vn -0.125142 0.990440 0.058035
vn -0.125142 0.990440 0.058035
vn -0.951165 0.297395 0.082718
vn -0.951165 0.297395 0.082718
vn -0.951165 0.297395 0.082718
vn -0.951165 0.297395 0.082718
vn -0.951165 -0.297394 0.082718
vn -0.951165 -0.297394 0.082718
vn -0.951165 -0.297394 0.082718
vn -0.951165 -0.297394 0.082718
vn -0.640108 -0.046283 0.766889
vn -0.640108 -0.046283 0.766889
vn -0.640108 -0.046283 0.766889
vn -0.640108 -0.046283 0.766889
vn -0.759396 -0.579291 0.296210
vn -0.759396 -0.579291 0.296210
vn -0.759396 -0.579291 0.296210
vn -0.759396 -0.579291 0.296210
vn 0.000000 0.000000 1.000000
vn 0.000000 0.000000 1.000000
vn 0.000000 0.000000 1.000000
vn 0.000000 0.000000 1.000000
vn -0.759395 0.579292 0.296210
vn -0.759395 0.579292 0.296210
vn -0.759395 0.579292 0.296210
vn -0.759395 0.579292 0.296210
vn -0.640109 0.046280 0.766889
vn -0.640109 0.046280 0.766889
vn -0.640109 0.046280 0.766889
vn -0.640109 0.046280 0.766889
vn -0.516074 0.019489 0.856322
vn -0.516074 0.019489 0.856322
vn -0.516074 0.019489 0.856322
vn -0.516074 0.019489 0.856322
vn -0.516078 -0.019489 0.856320
vn -0.516078 -0.019489 0.856320
vn -0.516078 -0.019489 0.856320
vn -0.516078 -0.019489 0.856320
vn 0.188713 0.980899 0.047168
vn 0.188713 0.980899 0.047168
vn 0.188713 0.980899 0.047168
vn 0.188713 0.980899 0.047168
vn -0.728970 0.675646 0.110027
vn -0.728970 0.675646 0.110027
vn -0.728970 0.675646 0.110027
vn -0.728970 0.675646 0.110027
vn -0.385074 0.000000 0.922886
vn -0.385074 0.000000 0.922886
vn -0.385074 0.000000 0.922886
vn -0.385074 0.000000 0.922886
vn -0.728970 -0.675646 0.110027
vn -0.728970 -0.675646 0.110027
vn -0.728970 -0.675646 0.110027
vn -0.728970 -0.675646 0.110027
vn 0.188713 -0.980899 0.047168
vn 0.188713 -0.980899 0.047168
vn 0.188713 -0.980899 0.047168
vn 0.188713 -0.980899 0.047168
vn 0.925922 -0.376959 0.023905
vn 0.925922 -0.376959 0.023905
vn 0.925922 -0.376959 0.023905
vn 0.925922 -0.376959 0.023905
vn 0.925922 0.376958 0.023904
vn 0.925922 0.376958 0.023904
vn 0.925922 0.376958 0.023904
vn 0.925922 0.376958 0.023904
vn 0.197410 0.864911 -0.461475
vn 0.197410 0.864911 -0.461475
vn 0.197410 0.864911 -0.461475
vn 0.197410 0.864911 -0.461475
vn -0.500841 0.675125 -0.541632
vn -0.500841 0.675125 -0.541632
vn -0.500841 0.675125 -0.541632
vn -0.500841 0.675125 -0.541632
vn -0.762810 0.000000 -0.646622
vn -0.762810 0.000000 -0.646622
vn -0.762810 0.000000 -0.646622
vn -0.762810 0.000000 -0.646622
vn -0.500841 -0.675125 -0.541632
vn -0.500841 -0.675125 -0.541632
vn -0.500841 -0.675125 -0.541632
vn -0.500841 -0.675125 -0.541632
vn 0.197410 -0.864910 -0.461475
vn 0.197410 -0.864910 -0.461475
vn 0.197410 -0.864911 -0.461475
vn 0.197410 -0.864911 -0.461475
vn 0.799298 -0.384921 -0.461475
vn 0.799298 -0.384921 -0.461475
vn 0.799298 -0.384921 -0.461475
vn 0.799298 -0.384921 -0.461475
vn 0.799298 0.384921 -0.461475
vn 0.799298 0.384921 -0.461475
vn 0.799298 0.384921 -0.461475
vn 0.799298 0.384921 -0.461475
vn 0.000000 0.000000 -1.000000
vn 0.000000 0.000000 -1.000000
vn 0.000000 0.000000 -1.000000
vn 0.000000 0.000000 -1.000000
vn 0.000000 0.000000 -1.000000
vn 0.000000 0.000000 -1.000000
vn 0.000000 0.000000 -1.000000
vn 0.000000 0.000000 -1.000000
vn 0.000000 0.000000 -1.000000
vn 0.000000 0.000000 -1.000000
vn 0.000000 0.000000 -1.000000
vn 0.000000 0.000000 -1.000000
vn 0.000000 0.000000 -1.000000
vn 0.000000 0.000000 -1.000000
vn 0.000000 0.000000 -1.000000
vn 0.000000 0.000000 -1.000000
vn -0.000000 0.000000 -1.000000
vn -0.000000 0.000000 -1.000000
vn -0.000000 0.000000 -1.000000
vn -0.000000 0.000000 -1.000000
vn -0.000000 0.000000 -1.000000
vn -0.000000 0.000000 -1.000000
vn -0.000000 0.000000 -1.000000
vn -0.000000 0.000000 -1.000000
vn 0.000000 0.000000 -1.000000
vn 0.000000 0.000000 -1.000000
vn 0.000000 0.000000 -1.000000
vn 0.000000 0.000000 -1.000000
vn -0.159667 -0.909655 -0.383451
vn -0.159667 -0.909655 -0.383451
vn -0.159667 -0.909655 -0.383451
vn -0.159667 -0.909655 -0.383451
vn 0.563010 -0.624626 -0.541168
vn 0.563010 -0.624626 -0.541168
vn 0.563010 -0.624626 -0.541168
vn 0.563010 -0.624626 -0.541168
vn 0.762811 0.000000 -0.646622
vn 0.762811 0.000000 -0.646622
vn 0.762811 0.000000 -0.646622
vn 0.762811 0.000000 -0.646622
vn 0.563010 0.624626 -0.541168
vn 0.563010 0.624626 -0.541168
vn 0.563010 0.624626 -0.541168
vn 0.563010 0.624626 -0.541168
vn -0.159667 0.909655 -0.383451
vn -0.159667 0.909655 -0.383451
vn -0.159667 0.909655 -0.383451
vn -0.159667 0.909655 -0.383451
vn -0.859862 0.415034 -0.297295
vn -0.859862 0.415034 -0.297295
vn -0.859862 0.415034 -0.297295
vn -0.859862 0.415034 -0.297295
vn -0.859862 -0.415034 -0.297296
vn -0.859862 -0.415034 -0.297296
vn -0.859862 -0.415034 -0.297296
vn -0.859862 -0.415034 -0.297296
s off
g M3:pTorus1
f 2/1/1 1/2/2 8/3/3 9/4/4
f 3/5/5 2/1/6 9/4/7 10/6/8
f 4/7/9 3/5/10 10/6/11 11/8/12
f 5/9/13 4/7/14 11/8/15 12/10/16
f 6/11/17 5/9/18 12/10/19 13/12/20
f 7/13/21 6/11/22 13/12/23 14/14/24
f 1/15/25 7/13/26 14/14/27 8/16/28
f 9/4/29 8/3/30 15/17/31 16/18/32
f 10/6/33 9/4/34 16/18/35 17/19/36
f 11/8/37 10/6/38 17/19/39 18/20/40
f 12/10/41 11/8/42 18/20/43 19/21/44
f 13/12/45 12/10/46 19/21/47 20/22/48
f 14/14/49 13/12/50 20/22/51 21/23/52
f 8/16/53 14/14/54 21/23/55 15/24/56
f 16/18/57 15/17/58 22/25/59 23/26/60
f 17/19/61 16/18/62 23/26/63 24/27/64
f 18/20/65 17/19/66 24/27/67 25/28/68
f 19/21/69 18/20/70 25/28/71 26/29/72
f 20/22/73 19/21/74 26/29/75 27/30/76
f 21/23/77 20/22/78 27/30/79 28/31/80
f 15/24/81 21/23/82 28/31/83 22/32/84
f 23/26/85 22/25/86 29/33/87 30/34/88
f 24/27/89 23/26/90 30/34/91 31/35/92
f 25/28/93 24/27/94 31/35/95 32/36/96
f 26/29/97 25/28/98 32/36/99 33/37/100
f 27/30/101 26/29/102 33/37/103 34/38/104
f 28/31/105 27/30/106 34/38/107 35/39/108
f 22/32/109 28/31/110 35/39/111 29/40/112
f 30/34/113 29/33/114 36/41/115 37/42/116
f 31/35/117 30/34/118 37/42/119 38/43/120
f 32/36/121 31/35/122 38/43/123 39/44/124
f 33/37/125 32/36/126 39/44/127 40/45/128
f 34/38/129 33/37/130 40/45/131 41/46/132
f 35/39/133 34/38/134 41/46/135 42/47/136
f 29/40/137 35/39/138 42/47/139 36/48/140
f 37/42/141 36/41/142 1/49/143 2/50/144
f 38/43/145 37/42/146 2/50/147 3/51/148
f 39/44/149 38/43/150 3/51/151 4/52/152
f 40/45/153 39/44/154 4/52/155 5/53/156
f 41/46/157 40/45/158 5/53/159 6/54/160
f 42/47/161 41/46/162 6/54/163 7/55/164
f 36/48/165 42/47/166 7/55/167 1/56/168
