# This file uses centimeters as units for non-parametric coordinates.

g default
v 0.393375 0.120525 0.000000
v 0.334625 0.229252 0.000000
v 0.243119 0.315538 0.000000
v 0.127816 0.370937 0.000000
v 0.000000 0.390026 0.000000
v -0.127814 0.370937 0.000000
v -0.243119 0.315538 0.000000
v -0.334625 0.229252 0.000000
v -0.393375 0.120525 0.000000
v -0.413619 0.000000 0.000000
v -0.393375 -0.120524 0.000000
v -0.334625 -0.229252 0.000000
v -0.243119 -0.315538 0.000000
v -0.127816 -0.370936 0.000000
v 0.000000 -0.390026 0.000000
v 0.127814 -0.370936 0.000000
v 0.243119 -0.315538 0.000000
v 0.334625 -0.229252 0.000000
v 0.393374 -0.120524 0.000000
v 0.413619 0.000000 0.000000
v 0.369517 -0.021246 0.904261
v 0.369517 0.021246 0.904261
v 0.209407 0.061660 0.904261
v 0.164890 0.096036 0.904261
v 0.103618 0.121012 0.904261
v 0.031585 0.134144 0.904261
v -0.044153 0.134144 0.904261
v -0.116185 0.121012 0.904261
v -0.177457 0.096036 0.904261
v -0.221974 0.061660 0.904261
v 0.000751 0.021246 0.904261
v 0.000751 -0.021246 0.904261
v -0.221974 -0.061660 0.904261
v -0.177457 -0.096036 0.904261
v -0.116185 -0.121012 0.904261
v -0.044153 -0.134144 0.904261
v 0.031585 -0.134144 0.904261
v 0.103618 -0.121012 0.904261
v 0.164890 -0.096036 0.904261
v 0.209407 -0.061660 0.904261
v 0.426554 0.130690 0.073941
v 0.421149 0.164264 0.098294
v 0.443110 0.100532 0.098294
v 0.362849 0.248588 0.073941
v 0.346706 0.278945 0.098294
v 0.388477 0.224731 0.098294
v 0.263626 0.342152 0.073941
v 0.238325 0.366318 0.098294
v 0.295818 0.326930 0.098294
v 0.138595 0.402224 0.073941
v 0.106613 0.417835 0.098294
v 0.174201 0.397127 0.098294
v 0.000000 0.422924 0.073941
v -0.035533 0.428452 0.098294
v 0.035533 0.428452 0.098294
v -0.138595 0.402224 0.073941
v -0.174201 0.397127 0.098294
v -0.106613 0.417835 0.098294
v -0.263626 0.342152 0.073941
v -0.295818 0.326930 0.098294
v -0.238325 0.366318 0.098294
v -0.362849 0.248588 0.073941
v -0.388477 0.224731 0.098294
v -0.346706 0.278945 0.098294
v -0.426554 0.130690 0.073941
v -0.443110 0.100532 0.098294
v -0.421149 0.164264 0.098294
v -0.448506 0.000000 0.049002
v -0.307926 -0.033506 0.098294
v -0.307926 0.033506 0.098294
v -0.426554 -0.130690 0.073941
v -0.421149 -0.164264 0.098294
v -0.443110 -0.100532 0.098294
v -0.362849 -0.248588 0.073941
v -0.346706 -0.278945 0.098294
v -0.388477 -0.224731 0.098294
v -0.263626 -0.342152 0.073941
v -0.238325 -0.366318 0.098294
v -0.295818 -0.326930 0.098294
v -0.138595 -0.402224 0.073941
v -0.106613 -0.417835 0.098294
v -0.174201 -0.397127 0.098294
v 0.000000 -0.422924 0.073941
v 0.035533 -0.428451 0.098294
v -0.035533 -0.428451 0.098294
v 0.138595 -0.402224 0.073941
v 0.174201 -0.397127 0.098294
v 0.106613 -0.417835 0.098294
v 0.263626 -0.342152 0.073941
v 0.295818 -0.326930 0.098294
v 0.238325 -0.366318 0.098294
v 0.362849 -0.248588 0.073941
v 0.388477 -0.224731 0.098294
v 0.346706 -0.278945 0.098294
v 0.426554 -0.130690 0.073941
v 0.443110 -0.100532 0.098294
v 0.421149 -0.164264 0.098294
v 0.448506 0.000000 0.073941
v 0.535704 0.033506 0.098294
v 0.535704 -0.033506 0.098294
vt 0.625013 0.250000
vt 0.618895 0.288631
vt 0.601138 0.323481
vt 0.573480 0.351139
vt 0.538631 0.368895
vt 0.500000 0.375014
vt 0.461369 0.368895
vt 0.426519 0.351138
vt 0.398862 0.323481
vt 0.381105 0.288631
vt 0.374987 0.250000
vt 0.381105 0.211369
vt 0.398861 0.176519
vt 0.426519 0.148862
vt 0.461368 0.131105
vt 0.500000 0.124987
vt 0.538631 0.131105
vt 0.573481 0.148862
vt 0.601138 0.176519
vt 0.618895 0.211369
vt 0.661505 0.197524
vt 0.677797 0.207221
vt 0.682315 0.235742
vt 0.669817 0.250000
vt 0.668986 0.180102
vt 0.637384 0.150185
vt 0.655876 0.154373
vt 0.639115 0.131304
vt 0.599816 0.112616
vt 0.618697 0.110885
vt 0.595627 0.094124
vt 0.552476 0.088495
vt 0.569898 0.081014
vt 0.542778 0.072203
vt 0.500000 0.080183
vt 0.514257 0.067685
vt 0.485742 0.067685
vt 0.447524 0.088495
vt 0.457222 0.072203
vt 0.430102 0.081014
vt 0.400185 0.112616
vt 0.404373 0.094124
vt 0.381304 0.110885
vt 0.362616 0.150185
vt 0.360885 0.131304
vt 0.344124 0.154373
vt 0.338494 0.197524
vt 0.331014 0.180102
vt 0.322202 0.207222
vt 0.330185 0.250000
vt 0.317686 0.235742
vt 0.317686 0.264257
vt 0.338494 0.302476
vt 0.322202 0.292779
vt 0.331014 0.319898
vt 0.362615 0.349816
vt 0.344123 0.345628
vt 0.360884 0.368697
vt 0.400184 0.387384
vt 0.381303 0.389115
vt 0.404373 0.405876
vt 0.447523 0.411505
vt 0.430101 0.418986
vt 0.457221 0.427798
vt 0.499999 0.419818
vt 0.485741 0.432316
vt 0.514257 0.432316
vt 0.552476 0.411505
vt 0.542778 0.427798
vt 0.569898 0.418986
vt 0.599815 0.387385
vt 0.595627 0.405876
vt 0.618697 0.389115
vt 0.637385 0.349815
vt 0.639115 0.368696
vt 0.655876 0.345627
vt 0.661505 0.302476
vt 0.668986 0.319898
vt 0.677797 0.292778
vt 0.682315 0.264257
vt 0.679959 0.630854
vt 0.587804 0.815149
vt 0.670728 0.630857
vt 0.329270 0.630854
vt 0.412195 0.815148
vt 0.320041 0.630854
vt 0.347727 0.630854
vt 0.421439 0.815151
vt 0.338498 0.630854
vt 0.366186 0.630857
vt 0.430681 0.815148
vt 0.356955 0.630854
vt 0.384643 0.630855
vt 0.439923 0.815147
vt 0.375413 0.630855
vt 0.403100 0.630854
vt 0.449165 0.815147
vt 0.393870 0.630854
vt 0.421557 0.630853
vt 0.458409 0.815149
vt 0.412327 0.630853
vt 0.440014 0.630853
vt 0.467651 0.815146
vt 0.430784 0.630853
vt 0.458472 0.630857
vt 0.476894 0.815149
vt 0.449242 0.630856
vt 0.476929 0.630858
vt 0.486136 0.815151
vt 0.467700 0.630857
vt 0.495386 0.630858
vt 0.495379 0.815152
vt 0.486157 0.630858
vt 0.513843 0.630855
vt 0.504621 0.815149
vt 0.504614 0.630858
vt 0.532300 0.630857
vt 0.513864 0.815149
vt 0.523071 0.630857
vt 0.550758 0.630857
vt 0.523106 0.815150
vt 0.541528 0.630855
vt 0.569215 0.630855
vt 0.532349 0.815150
vt 0.559985 0.630858
vt 0.587672 0.630855
vt 0.541591 0.815150
vt 0.578443 0.630855
vt 0.606130 0.630855
vt 0.550834 0.815149
vt 0.596900 0.630855
vt 0.624587 0.630854
vt 0.560077 0.815149
vt 0.615357 0.630855
vt 0.643044 0.630856
vt 0.569318 0.815151
vt 0.633815 0.630855
vt 0.661501 0.630855
vt 0.578562 0.815149
vt 0.652271 0.630856
vt 0.598797 0.780450
vt 0.665695 0.631788
vt 0.390225 0.780450
vt 0.315894 0.631787
vt 0.401203 0.780452
vt 0.334304 0.631787
vt 0.412180 0.780450
vt 0.352715 0.631787
vt 0.423158 0.780450
vt 0.371125 0.631786
vt 0.434135 0.780448
vt 0.389535 0.631784
vt 0.445112 0.780450
vt 0.407946 0.631783
vt 0.456090 0.780448
vt 0.426357 0.631782
vt 0.467067 0.780448
vt 0.444767 0.631782
vt 0.478045 0.780452
vt 0.463179 0.631788
vt 0.489023 0.780452
vt 0.481589 0.631787
vt 0.500000 0.780451
vt 0.500000 0.631790
vt 0.510977 0.780452
vt 0.518411 0.631786
vt 0.521955 0.780451
vt 0.536821 0.631787
vt 0.532932 0.780450
vt 0.555232 0.631789
vt 0.543910 0.780452
vt 0.573643 0.631787
vt 0.554887 0.780450
vt 0.592053 0.631789
vt 0.565865 0.780451
vt 0.610463 0.631789
vt 0.576842 0.780450
vt 0.628874 0.631788
vt 0.587819 0.780451
vt 0.647284 0.631790
vt 0.371457 0.742915
vt 0.384312 0.742915
vt 0.376653 0.725895
vt 0.373569 0.719042
vt 0.373495 0.718878
vt 0.376093 0.724652
vt 0.381897 0.737549
vt 0.392726 0.761613
vt 0.413619 0.808042
vt 0.434675 0.862474
vt 0.404021 0.808042
vt 0.380807 0.761613
vt 0.368775 0.737549
vt 0.362326 0.724652
vt 0.359439 0.718879
vt 0.359521 0.719041
vt 0.362948 0.725895
vt 0.315850 0.630854
vt 0.333461 0.630854
vt 0.351918 0.630854
vt 0.370376 0.630855
vt 0.388833 0.630855
vt 0.407290 0.630854
vt 0.425748 0.630853
vt 0.444205 0.630853
vt 0.462662 0.630855
vt 0.481120 0.630856
vt 0.499577 0.630856
vt 0.518034 0.630855
vt 0.536491 0.630855
vt 0.554949 0.630855
vt 0.573406 0.630855
vt 0.591863 0.630855
vt 0.610320 0.630855
vt 0.628778 0.630854
vt 0.647234 0.630856
vt 0.665692 0.630854
vn -0.000000 0.000000 -1.000000
vn -0.000000 0.000000 -1.000000
vn -0.000000 0.000000 -1.000000
vn -0.000000 0.000000 -1.000000
vn -0.000000 0.000000 -1.000000
vn -0.000000 0.000000 -1.000000
vn -0.000000 0.000000 -1.000000
vn -0.000000 0.000000 -1.000000
vn -0.000000 0.000000 -1.000000
vn -0.000000 0.000000 -1.000000
vn -0.000000 0.000000 -1.000000
vn -0.000000 0.000000 -1.000000
vn -0.000000 0.000000 -1.000000
vn -0.000000 0.000000 -1.000000
vn -0.000000 0.000000 -1.000000
vn -0.000000 0.000000 -1.000000
vn -0.000000 0.000000 -1.000000
vn -0.000000 0.000000 -1.000000
vn -0.000000 0.000000 -1.000000
vn -0.000000 0.000000 -1.000000
vn 0.854202 0.313407 -0.414868
vn 0.856575 0.313438 -0.409923
vn 0.847697 0.203562 -0.489870
vn 0.795154 0.175676 -0.580403
vn 0.854069 -0.000001 -0.520159
vn 0.862485 -0.000001 -0.506082
vn 0.847778 0.428243 -0.312858
vn 0.856575 0.313438 -0.409923
vn 0.854202 0.313407 -0.414868
vn 0.766643 0.556999 -0.319392
vn 0.767534 0.557646 -0.316106
vn 0.844767 0.434152 -0.312858
vn 0.673950 0.669261 -0.312858
vn 0.767534 0.557646 -0.316106
vn 0.766643 0.556999 -0.319392
vn 0.556998 0.766643 -0.319392
vn 0.557646 0.767534 -0.316106
vn 0.669261 0.673951 -0.312858
vn 0.434152 0.844768 -0.312858
vn 0.557646 0.767534 -0.316106
vn 0.556998 0.766643 -0.319392
vn 0.292831 0.901243 -0.319392
vn 0.293172 0.902290 -0.316106
vn 0.428243 0.847778 -0.312858
vn 0.151855 0.937582 -0.312858
vn 0.293172 0.902290 -0.316106
vn 0.292831 0.901243 -0.319392
vn -0.000000 0.947623 -0.319392
vn -0.000000 0.948724 -0.316106
vn 0.145305 0.938619 -0.312858
vn -0.145305 0.938619 -0.312858
vn -0.000000 0.948724 -0.316106
vn -0.000000 0.947623 -0.319392
vn -0.292832 0.901243 -0.319392
vn -0.293172 0.902290 -0.316106
vn -0.151856 0.937582 -0.312858
vn -0.428243 0.847778 -0.312858
vn -0.293172 0.902290 -0.316106
vn -0.292832 0.901243 -0.319392
vn -0.556999 0.766643 -0.319392
vn -0.557646 0.767534 -0.316106
vn -0.434152 0.844767 -0.312858
vn -0.669261 0.673950 -0.312859
vn -0.557646 0.767534 -0.316106
vn -0.556999 0.766643 -0.319392
vn -0.766643 0.556998 -0.319392
vn -0.767534 0.557646 -0.316106
vn -0.673951 0.669261 -0.312859
vn -0.844768 0.434152 -0.312858
vn -0.767534 0.557646 -0.316106
vn -0.766643 0.556998 -0.319392
vn -0.974351 0.192113 -0.117185
vn -0.973633 0.194930 -0.118500
vn -0.847778 0.428243 -0.312858
vn -0.991083 -0.080624 0.106087
vn -0.973633 0.194930 -0.118500
vn -0.974351 0.192113 -0.117185
vn -0.993254 0.000000 0.115960
vn -0.988016 0.000000 0.154355
vn -0.897877 -0.069012 0.434804
vn -0.897877 0.069012 0.434804
vn -0.988016 0.000000 0.154355
vn -0.993254 0.000000 0.115960
vn -0.974351 -0.192113 -0.117184
vn -0.973633 -0.194930 -0.118500
vn -0.991083 0.080624 0.106087
vn -0.847778 -0.428243 -0.312858
vn -0.973633 -0.194930 -0.118500
vn -0.974351 -0.192113 -0.117184
vn -0.766643 -0.556999 -0.319392
vn -0.767534 -0.557646 -0.316106
vn -0.844767 -0.434152 -0.312858
vn -0.673950 -0.669261 -0.312859
vn -0.767534 -0.557646 -0.316106
vn -0.766643 -0.556999 -0.319392
vn -0.556998 -0.766643 -0.319393
vn -0.557646 -0.767534 -0.316107
vn -0.669261 -0.673951 -0.312859
vn -0.434152 -0.844767 -0.312859
vn -0.557646 -0.767534 -0.316107
vn -0.556998 -0.766643 -0.319393
vn -0.292831 -0.901243 -0.319393
vn -0.293172 -0.902290 -0.316107
vn -0.428243 -0.847778 -0.312859
vn -0.151856 -0.937582 -0.312859
vn -0.293172 -0.902290 -0.316107
vn -0.292831 -0.901243 -0.319393
vn 0.000000 -0.947622 -0.319393
vn 0.000000 -0.948724 -0.316107
vn -0.145306 -0.938619 -0.312859
vn 0.145306 -0.938619 -0.312859
vn 0.000000 -0.948724 -0.316107
vn 0.000000 -0.947622 -0.319393
vn 0.292832 -0.901242 -0.319393
vn 0.293172 -0.902290 -0.316107
vn 0.151856 -0.937582 -0.312859
vn 0.428243 -0.847778 -0.312859
vn 0.293172 -0.902290 -0.316107
vn 0.292832 -0.901242 -0.319393
vn 0.556999 -0.766643 -0.319393
vn 0.557646 -0.767534 -0.316107
vn 0.434152 -0.844767 -0.312859
vn 0.669261 -0.673950 -0.312859
vn 0.557646 -0.767534 -0.316107
vn 0.556999 -0.766643 -0.319393
vn 0.766643 -0.556998 -0.319393
vn 0.767534 -0.557646 -0.316107
vn 0.673950 -0.669261 -0.312859
vn 0.844767 -0.434152 -0.312859
vn 0.767534 -0.557646 -0.316107
vn 0.766643 -0.556998 -0.319393
vn 0.854201 -0.313408 -0.414869
vn 0.856574 -0.313439 -0.409924
vn 0.847778 -0.428243 -0.312859
vn 0.847696 -0.203563 -0.489870
vn 0.856574 -0.313439 -0.409924
vn 0.854201 -0.313408 -0.414869
vn 0.862485 -0.000001 -0.506082
vn 0.854069 -0.000001 -0.520159
vn 0.795154 -0.175678 -0.580403
vn 0.640413 0.742411 0.196716
vn 0.846895 0.468326 0.251873
vn 0.881870 0.400649 0.248568
vn 0.812048 0.519038 0.266791
vn 0.725003 0.646009 0.238838
vn 0.737418 0.634385 0.231886
vn 0.611912 0.744571 0.266791
vn 0.680915 0.680916 0.269645
vn 0.744571 0.611912 0.266791
vn 0.351878 0.897220 0.266791
vn 0.437174 0.858004 0.269645
vn 0.519038 0.812048 0.266791
vn 0.057399 0.962044 0.266791
vn 0.150640 0.951104 0.269645
vn 0.242697 0.932695 0.266791
vn -0.242697 0.932695 0.266791
vn -0.150640 0.951104 0.269645
vn -0.057399 0.962044 0.266791
vn -0.519038 0.812048 0.266791
vn -0.437175 0.858003 0.269645
vn -0.351878 0.897220 0.266791
vn -0.744571 0.611912 0.266791
vn -0.680916 0.680915 0.269645
vn -0.611913 0.744571 0.266791
vn -0.885930 -0.399198 0.236153
vn -0.932460 -0.245022 0.265485
vn -0.812049 0.519037 0.266791
vn -0.767599 -0.607146 0.205344
vn -0.884599 -0.404609 0.231899
vn -0.601517 -0.784972 0.148314
vn -0.601516 0.784972 0.148314
vn -0.884599 0.404609 0.231899
vn -0.767599 0.607146 0.205344
vn -0.812048 -0.519038 0.266791
vn -0.932460 0.245022 0.265485
vn -0.885930 0.399198 0.236153
vn -0.611912 -0.744571 0.266791
vn -0.680915 -0.680916 0.269645
vn -0.744571 -0.611912 0.266791
vn -0.351878 -0.897220 0.266791
vn -0.437175 -0.858003 0.269645
vn -0.519038 -0.812048 0.266791
vn -0.057400 -0.962044 0.266791
vn -0.150640 -0.951104 0.269645
vn -0.242698 -0.932695 0.266791
vn 0.242698 -0.932695 0.266791
vn 0.150640 -0.951104 0.269645
vn 0.057400 -0.962044 0.266791
vn 0.519038 -0.812048 0.266791
vn 0.437175 -0.858003 0.269645
vn 0.351878 -0.897220 0.266791
vn 0.744571 -0.611912 0.266791
vn 0.680916 -0.680915 0.269645
vn 0.611912 -0.744571 0.266791
vn 0.737417 -0.634386 0.231885
vn 0.725003 -0.646009 0.238838
vn 0.812048 -0.519038 0.266791
vn 0.881869 -0.400650 0.248568
vn 0.846895 -0.468325 0.251873
vn 0.640413 -0.742411 0.196716
vn 0.846895 0.468326 0.251873
vn 0.846895 -0.468325 0.251873
vn 0.881869 -0.400650 0.248568
vn 0.881870 0.400649 0.248568
vn 0.725003 0.646009 0.238838
vn 0.846895 0.468326 0.251873
vn 0.640413 0.742411 0.196716
vn 0.737418 0.634385 0.231886
vn 0.680915 0.680916 0.269645
vn 0.725003 0.646009 0.238838
vn 0.812048 0.519038 0.266791
vn 0.744571 0.611912 0.266791
vn 0.437174 0.858004 0.269645
vn 0.680915 0.680916 0.269645
vn 0.611912 0.744571 0.266791
vn 0.519038 0.812048 0.266791
vn 0.150640 0.951104 0.269645
vn 0.437174 0.858004 0.269645
vn 0.351878 0.897220 0.266791
vn 0.242697 0.932695 0.266791
vn -0.150640 0.951104 0.269645
vn 0.150640 0.951104 0.269645
vn 0.057399 0.962044 0.266791
vn -0.057399 0.962044 0.266791
vn -0.437175 0.858003 0.269645
vn -0.150640 0.951104 0.269645
vn -0.242697 0.932695 0.266791
vn -0.351878 0.897220 0.266791
vn -0.680916 0.680915 0.269645
vn -0.437175 0.858003 0.269645
vn -0.519038 0.812048 0.266791
vn -0.611913 0.744571 0.266791
vn -0.932460 -0.245022 0.265485
vn -0.680916 0.680915 0.269645
vn -0.744571 0.611912 0.266791
vn -0.812049 0.519037 0.266791
vn -0.884599 -0.404609 0.231899
vn -0.932460 -0.245022 0.265485
vn -0.885930 -0.399198 0.236153
vn -0.601517 -0.784972 0.148314
vn -0.884599 0.404609 0.231899
vn -0.884599 -0.404609 0.231899
vn -0.767599 -0.607146 0.205344
vn -0.767599 0.607146 0.205344
vn -0.932460 0.245022 0.265485
vn -0.884599 0.404609 0.231899
vn -0.601516 0.784972 0.148314
vn -0.885930 0.399198 0.236153
vn -0.680915 -0.680916 0.269645
vn -0.932460 0.245022 0.265485
vn -0.812048 -0.519038 0.266791
vn -0.744571 -0.611912 0.266791
vn -0.437175 -0.858003 0.269645
vn -0.680915 -0.680916 0.269645
vn -0.611912 -0.744571 0.266791
vn -0.519038 -0.812048 0.266791
vn -0.150640 -0.951104 0.269645
vn -0.437175 -0.858003 0.269645
vn -0.351878 -0.897220 0.266791
vn -0.242698 -0.932695 0.266791
vn 0.150640 -0.951104 0.269645
vn -0.150640 -0.951104 0.269645
vn -0.057400 -0.962044 0.266791
vn 0.057400 -0.962044 0.266791
vn 0.437175 -0.858003 0.269645
vn 0.150640 -0.951104 0.269645
vn 0.242698 -0.932695 0.266791
vn 0.351878 -0.897220 0.266791
vn 0.680916 -0.680915 0.269645
vn 0.437175 -0.858003 0.269645
vn 0.519038 -0.812048 0.266791
vn 0.611912 -0.744571 0.266791
vn 0.725003 -0.646009 0.238838
vn 0.680916 -0.680915 0.269645
vn 0.744571 -0.611912 0.266791
vn 0.812048 -0.519038 0.266791
vn 0.846895 -0.468325 0.251873
vn 0.725003 -0.646009 0.238838
vn 0.737417 -0.634386 0.231885
vn 0.640413 -0.742411 0.196716
vn 0.000000 -0.000001 1.000000
vn 0.000000 -0.000001 1.000000
vn 0.000000 -0.000001 1.000000
vn 0.000000 -0.000001 1.000000
vn 0.000000 -0.000001 1.000000
vn 0.000000 -0.000001 1.000000
vn 0.000000 -0.000001 1.000000
vn 0.000000 -0.000001 1.000000
vn 0.000000 -0.000001 1.000000
vn 0.000000 -0.000001 1.000000
vn 0.000000 -0.000001 1.000000
vn 0.000000 -0.000001 1.000000
vn 0.000000 -0.000001 1.000000
vn 0.000000 -0.000001 1.000000
vn 0.000000 -0.000001 1.000000
vn 0.000000 -0.000001 1.000000
vn 0.000000 -0.000001 1.000000
vn 0.000000 -0.000001 1.000000
vn 0.000000 -0.000001 1.000000
vn 0.000000 -0.000001 1.000000
vn 0.856575 0.313438 -0.409923
vn 0.847778 0.428243 -0.312858
vn 0.847697 0.203562 -0.489870
vn 0.767534 0.557646 -0.316106
vn 0.673950 0.669261 -0.312858
vn 0.844767 0.434152 -0.312858
vn 0.557646 0.767534 -0.316106
vn 0.434152 0.844768 -0.312858
vn 0.669261 0.673951 -0.312858
vn 0.293172 0.902290 -0.316106
vn 0.151855 0.937582 -0.312858
vn 0.428243 0.847778 -0.312858
vn -0.000000 0.948724 -0.316106
vn -0.145305 0.938619 -0.312858
vn 0.145305 0.938619 -0.312858
vn -0.293172 0.902290 -0.316106
vn -0.428243 0.847778 -0.312858
vn -0.151856 0.937582 -0.312858
vn -0.557646 0.767534 -0.316106
vn -0.669261 0.673950 -0.312859
vn -0.434152 0.844767 -0.312858
vn -0.767534 0.557646 -0.316106
vn -0.844768 0.434152 -0.312858
vn -0.673951 0.669261 -0.312859
vn -0.973633 0.194930 -0.118500
vn -0.991083 -0.080624 0.106087
vn -0.847778 0.428243 -0.312858
vn -0.988016 0.000000 0.154355
vn -0.897877 0.069012 0.434804
vn -0.897877 -0.069012 0.434804
vn -0.973633 -0.194930 -0.118500
vn -0.847778 -0.428243 -0.312858
vn -0.991083 0.080624 0.106087
vn -0.767534 -0.557646 -0.316106
vn -0.673950 -0.669261 -0.312859
vn -0.844767 -0.434152 -0.312858
vn -0.557646 -0.767534 -0.316107
vn -0.434152 -0.844767 -0.312859
vn -0.669261 -0.673951 -0.312859
vn -0.293172 -0.902290 -0.316107
vn -0.151856 -0.937582 -0.312859
vn -0.428243 -0.847778 -0.312859
vn 0.000000 -0.948724 -0.316107
vn 0.145306 -0.938619 -0.312859
vn -0.145306 -0.938619 -0.312859
vn 0.293172 -0.902290 -0.316107
vn 0.428243 -0.847778 -0.312859
vn 0.151856 -0.937582 -0.312859
vn 0.557646 -0.767534 -0.316107
vn 0.669261 -0.673950 -0.312859
vn 0.434152 -0.844767 -0.312859
vn 0.767534 -0.557646 -0.316107
vn 0.844767 -0.434152 -0.312859
vn 0.673950 -0.669261 -0.312859
vn 0.856574 -0.313439 -0.409924
vn 0.847696 -0.203563 -0.489870
vn 0.847778 -0.428243 -0.312859
vn 0.854069 -0.000001 -0.520159
vn 0.795154 0.175676 -0.580403
vn 0.795154 -0.175678 -0.580403
s off
g M1:pCone1
f 20/1/1 19/2/2 18/3/3 17/4/4 16/5/5 15/6/6 14/7/7 13/8/8 12/9/9 11/10/10 10/11/11 9/12/12 8/13/13 7/14/14 6/15/15 5/16/16 4/17/17 3/18/18 2/19/19 1/20/20
f 1/20/21 41/21/22 43/22/23 99/23/24 98/24/25 20/1/26
f 42/25/27 41/21/28 1/20/29 2/19/30 44/26/31 46/27/32
f 45/28/33 44/26/34 2/19/35 3/18/36 47/29/37 49/30/38
f 48/31/39 47/29/40 3/18/41 4/17/42 50/32/43 52/33/44
f 51/34/45 50/32/46 4/17/47 5/16/48 53/35/49 55/36/50
f 54/37/51 53/35/52 5/16/53 6/15/54 56/38/55 58/39/56
f 57/40/57 56/38/58 6/15/59 7/14/60 59/41/61 61/42/62
f 60/43/63 59/41/64 7/14/65 8/13/66 62/44/67 64/45/68
f 63/46/69 62/44/70 8/13/71 9/12/72 65/47/73 67/48/74
f 66/49/75 65/47/76 9/12/77 10/11/78 68/50/79 70/51/80
f 69/52/81 68/50/82 10/11/83 11/10/84 71/53/85 73/54/86
f 72/55/87 71/53/88 11/10/89 12/9/90 74/56/91 76/57/92
f 75/58/93 74/56/94 12/9/95 13/8/96 77/59/97 79/60/98
f 78/61/99 77/59/100 13/8/101 14/7/102 80/62/103 82/63/104
f 81/64/105 80/62/106 14/7/107 15/6/108 83/65/109 85/66/110
f 84/67/111 83/65/112 15/6/113 16/5/114 86/68/115 88/69/116
f 87/70/117 86/68/118 16/5/119 17/4/120 89/71/121 91/72/122
f 90/73/123 89/71/124 17/4/125 18/3/126 92/74/127 94/75/128
f 93/76/129 92/74/130 18/3/131 19/2/132 95/77/133 97/78/134
f 96/79/135 95/77/136 19/2/137 20/1/138 98/24/139 100/80/140
f 43/81/141 22/82/142 99/83/143
f 46/84/144 23/85/145 42/86/146
f 49/87/147 24/88/148 45/89/149
f 52/90/150 25/91/151 48/92/152
f 55/93/153 26/94/154 51/95/155
f 58/96/156 27/97/157 54/98/158
f 61/99/159 28/100/160 57/101/161
f 64/102/162 29/103/163 60/104/164
f 67/105/165 30/106/166 63/107/167
f 70/108/168 31/109/169 66/110/170
f 73/111/171 32/112/172 69/113/173
f 76/114/174 33/115/175 72/116/176
f 79/117/177 34/118/178 75/119/179
f 82/120/180 35/121/181 78/122/182
f 85/123/183 36/124/184 81/125/185
f 88/126/186 37/127/187 84/128/188
f 91/129/189 38/130/190 87/131/191
f 94/132/192 39/133/193 90/134/194
f 97/135/195 40/136/196 93/137/197
f 100/138/198 21/139/199 96/140/200
f 22/141/201 21/139/202 100/138/203 99/142/204
f 23/85/205 22/143/206 43/144/207 42/86/208
f 24/145/209 23/85/210 46/84/211 45/146/212
f 25/147/213 24/88/214 49/87/215 48/148/216
f 26/149/217 25/91/218 52/90/219 51/150/220
f 27/151/221 26/94/222 55/93/223 54/152/224
f 28/153/225 27/97/226 58/96/227 57/154/228
f 29/155/229 28/100/230 61/99/231 60/156/232
f 30/157/233 29/103/234 64/102/235 63/158/236
f 31/159/237 30/106/238 67/105/239 66/160/240
f 32/161/241 31/109/242 70/108/243 69/162/244
f 33/163/245 32/112/246 73/111/247 72/164/248
f 34/165/249 33/115/250 76/114/251 75/166/252
f 35/167/253 34/118/254 79/117/255 78/168/256
f 36/169/257 35/121/258 82/120/259 81/170/260
f 37/171/261 36/124/262 85/123/263 84/172/264
f 38/173/265 37/127/266 88/126/267 87/174/268
f 39/175/269 38/130/270 91/129/271 90/176/272
f 40/177/273 39/133/274 94/132/275 93/178/276
f 21/179/277 40/136/278 97/135/279 96/180/280
f 21/181/281 22/143/282 23/85/283 24/145/284 25/182/285 26/183/286 27/184/287 28/185/288 29/186/289 30/187/290 31/188/291 32/189/292 33/190/293 34/191/294 35/192/295 36/193/296 37/194/297 38/195/298 39/196/299 40/197/300
f 41/198/301 42/86/302 43/144/303
f 44/199/304 45/146/305 46/84/306
f 47/200/307 48/148/308 49/87/309
f 50/201/310 51/150/311 52/90/312
f 53/202/313 54/152/314 55/93/315
f 56/203/316 57/154/317 58/96/318
f 59/204/319 60/156/320 61/99/321
f 62/205/322 63/158/323 64/102/324
f 65/206/325 66/160/326 67/105/327
f 68/207/328 69/162/329 70/108/330
f 71/208/331 72/164/332 73/111/333
f 74/209/334 75/166/335 76/114/336
f 77/210/337 78/168/338 79/117/339
f 80/211/340 81/170/341 82/120/342
f 83/212/343 84/172/344 85/123/345
f 86/213/346 87/174/347 88/126/348
f 89/214/349 90/176/350 91/129/351
f 92/215/352 93/178/353 94/132/354
f 95/216/355 96/180/356 97/135/357
f 98/217/358 99/142/359 100/138/360
