# This file uses centimeters as units for non-parametric coordinates.

g default
v 0.024697 0.039757 0.025180
v 0.030228 0.048982 0.016084
v 0.037473 0.050986 0.004171
v 0.044131 0.045135 -0.006777
v 0.048088 0.033284 -0.013285
v 0.048088 0.019198 -0.013285
v 0.044131 0.007347 -0.006777
v 0.037473 0.001495 0.004171
v 0.030228 0.003500 0.016084
v 0.024697 0.012725 0.025180
v 0.022635 0.026241 0.028571
v -0.049817 0.026241 -0.044749
vt 0.710313 0.114840
vt 0.603854 0.022592
vt 0.464421 0.002545
vt 0.336285 0.061063
vt 0.260127 0.179567
vt 0.260127 0.320433
vt 0.336285 0.438937
vt 0.464421 0.497455
vt 0.603854 0.477408
vt 0.710313 0.385160
vt 0.750000 0.250000
vt 0.250000 0.500000
vt 0.295455 0.500000
vt 0.340909 0.500000
vt 0.386364 0.500000
vt 0.431818 0.500000
vt 0.477273 0.500000
vt 0.522727 0.500000
vt 0.568182 0.500000
vt 0.613636 0.500000
vt 0.659091 0.500000
vt 0.704546 0.500000
vt 0.750000 0.500000
vt 0.500000 1.000000
vn 0.854414 0.000000 0.519593
vn 0.854414 0.000000 0.519593
vn 0.854414 0.000000 0.519593
vn 0.854414 0.000000 0.519593
vn 0.854414 0.000000 0.519593
vn 0.854414 0.000000 0.519593
vn 0.854414 0.000000 0.519593
vn 0.854414 0.000000 0.519593
vn 0.854414 0.000000 0.519593
vn 0.854414 0.000000 0.519593
vn 0.854414 0.000000 0.519593
vn -0.530173 0.734902 0.422890
vn -0.530173 0.734902 0.422890
vn -0.530173 0.734902 0.422890
vn -0.271204 0.962517 -0.002956
vn -0.271204 0.962517 -0.002956
vn -0.271204 0.962517 -0.002956
vn 0.010595 0.884540 -0.466344
vn 0.010595 0.884540 -0.466344
vn 0.010595 0.884540 -0.466344
vn 0.225754 0.525728 -0.820150
vn 0.225754 0.525728 -0.820150
vn 0.225754 0.525728 -0.820150
vn 0.305962 0.000000 -0.952044
vn 0.305962 0.000000 -0.952044
vn 0.305962 0.000000 -0.952044
vn 0.225754 -0.525727 -0.820150
vn 0.225754 -0.525727 -0.820150
vn 0.225754 -0.525727 -0.820150
vn 0.010595 -0.884540 -0.466344
vn 0.010595 -0.884540 -0.466344
vn 0.010595 -0.884540 -0.466344
vn -0.271203 -0.962517 -0.002957
vn -0.271203 -0.962517 -0.002957
vn -0.271204 -0.962518 -0.002957
vn -0.530172 -0.734902 0.422890
vn -0.530172 -0.734902 0.422890
vn -0.530172 -0.734902 0.422890
vn -0.684091 -0.273961 0.675992
vn -0.684091 -0.273961 0.675992
vn -0.684091 -0.273961 0.675992
vn -0.684091 0.273961 0.675992
vn -0.684091 0.273961 0.675992
vn -0.684091 0.273961 0.675992
s off
g pCone1
f 1/1/1 11/11/2 10/10/3 9/9/4 8/8/5 7/7/6 6/6/7 5/5/8 4/4/9 3/3/10 2/2/11
f 1/12/12 2/13/13 12/24/14
f 2/13/15 3/14/16 12/24/17
f 3/14/18 4/15/19 12/24/20
f 4/15/21 5/16/22 12/24/23
f 5/16/24 6/17/25 12/24/26
f 6/17/27 7/18/28 12/24/29
f 7/18/30 8/19/31 12/24/32
f 8/19/33 9/20/34 12/24/35
f 9/20/36 10/21/37 12/24/38
f 10/21/39 11/22/40 12/24/41
f 11/22/42 1/23/43 12/24/44
g default
v 0.024697 -0.012254 0.025180
v 0.030228 -0.003029 0.016084
v 0.037473 -0.001024 0.004171
v 0.044131 -0.006876 -0.006777
v 0.048088 -0.018726 -0.013285
v 0.048088 -0.032813 -0.013285
v 0.044131 -0.044663 -0.006777
v 0.037473 -0.050515 0.004171
v 0.030228 -0.048510 0.016084
v 0.024697 -0.039286 0.025180
v 0.022635 -0.025770 0.028571
v -0.049817 -0.025770 -0.044749
vt 0.710313 0.114840
vt 0.603854 0.022592
vt 0.464421 0.002545
vt 0.336285 0.061063
vt 0.260127 0.179567
vt 0.260127 0.320433
vt 0.336285 0.438937
vt 0.464421 0.497455
vt 0.603854 0.477408
vt 0.710313 0.385160
vt 0.750000 0.250000
vt 0.250000 0.500000
vt 0.295455 0.500000
vt 0.340909 0.500000
vt 0.386364 0.500000
vt 0.431818 0.500000
vt 0.477273 0.500000
vt 0.522727 0.500000
vt 0.568182 0.500000
vt 0.613636 0.500000
vt 0.659091 0.500000
vt 0.704546 0.500000
vt 0.750000 0.500000
vt 0.500000 1.000000
vn 0.854414 0.000000 0.519593
vn 0.854414 0.000000 0.519593
vn 0.854414 0.000000 0.519593
vn 0.854414 0.000000 0.519593
vn 0.854414 0.000000 0.519593
vn 0.854414 0.000000 0.519593
vn 0.854414 0.000000 0.519593
vn 0.854414 0.000000 0.519593
vn 0.854414 0.000000 0.519593
vn 0.854414 0.000000 0.519593
vn 0.854414 0.000000 0.519593
vn -0.530173 0.734902 0.422890
vn -0.530173 0.734902 0.422890
vn -0.530173 0.734902 0.422890
vn -0.271204 0.962517 -0.002956
vn -0.271204 0.962517 -0.002956
vn -0.271204 0.962517 -0.002956
vn 0.010595 0.884540 -0.466344
vn 0.010595 0.884540 -0.466344
vn 0.010595 0.884540 -0.466344
vn 0.225754 0.525728 -0.820150
vn 0.225754 0.525728 -0.820150
vn 0.225754 0.525728 -0.820150
vn 0.305962 0.000000 -0.952044
vn 0.305962 0.000000 -0.952044
vn 0.305962 0.000000 -0.952044
vn 0.225754 -0.525727 -0.820150
vn 0.225754 -0.525727 -0.820150
vn 0.225754 -0.525727 -0.820150
vn 0.010595 -0.884540 -0.466344
vn 0.010595 -0.884540 -0.466344
vn 0.010595 -0.884540 -0.466344
vn -0.271203 -0.962517 -0.002957
vn -0.271203 -0.962517 -0.002957
vn -0.271204 -0.962518 -0.002957
vn -0.530172 -0.734902 0.422890
vn -0.530172 -0.734902 0.422890
vn -0.530172 -0.734902 0.422890
vn -0.684091 -0.273961 0.675992
vn -0.684091 -0.273961 0.675992
vn -0.684091 -0.273961 0.675992
vn -0.684091 0.273961 0.675992
vn -0.684091 0.273961 0.675992
vn -0.684091 0.273961 0.675992
s off
g pasted__pCone1 group1
f 13/25/45 23/35/46 22/34/47 21/33/48 20/32/49 19/31/50 18/30/51 17/29/52 16/28/53 15/27/54 14/26/55
f 13/36/56 14/37/57 24/48/58
f 14/37/59 15/38/60 24/48/61
f 15/38/62 16/39/63 24/48/64
f 16/39/65 17/40/66 24/48/67
f 17/40/68 18/41/69 24/48/70
f 18/41/71 19/42/72 24/48/73
f 19/42/74 20/43/75 24/48/76
f 20/43/77 21/44/78 24/48/79
f 21/44/80 22/45/81 24/48/82
f 22/45/83 23/46/84 24/48/85
f 23/46/86 13/47/87 24/48/88
g default
v 0.003441 0.013516 0.065685
v 0.008972 0.022741 0.056589
v 0.016217 0.024746 0.044675
v 0.022875 0.018894 0.033727
v 0.026832 0.007043 0.027220
v 0.026832 -0.007043 0.027220
v 0.022875 -0.018894 0.033727
v 0.016217 -0.024746 0.044675
v 0.008972 -0.022741 0.056589
v 0.003441 -0.013516 0.065685
v 0.001379 -0.000000 0.069076
v -0.071073 0.000000 -0.004244
vt 0.710313 0.114840
vt 0.603854 0.022592
vt 0.464421 0.002545
vt 0.336285 0.061063
vt 0.260127 0.179567
vt 0.260127 0.320433
vt 0.336285 0.438937
vt 0.464421 0.497455
vt 0.603854 0.477408
vt 0.710313 0.385160
vt 0.750000 0.250000
vt 0.250000 0.500000
vt 0.295455 0.500000
vt 0.340909 0.500000
vt 0.386364 0.500000
vt 0.431818 0.500000
vt 0.477273 0.500000
vt 0.522727 0.500000
vt 0.568182 0.500000
vt 0.613636 0.500000
vt 0.659091 0.500000
vt 0.704546 0.500000
vt 0.750000 0.500000
vt 0.500000 1.000000
vn 0.854414 0.000000 0.519593
vn 0.854414 0.000000 0.519593
vn 0.854414 0.000000 0.519593
vn 0.854414 0.000000 0.519593
vn 0.854414 0.000000 0.519593
vn 0.854414 0.000000 0.519593
vn 0.854414 0.000000 0.519593
vn 0.854414 0.000000 0.519593
vn 0.854414 0.000000 0.519593
vn 0.854414 0.000000 0.519593
vn 0.854414 0.000000 0.519593
vn -0.530173 0.734902 0.422890
vn -0.530173 0.734902 0.422890
vn -0.530173 0.734902 0.422890
vn -0.271204 0.962517 -0.002956
vn -0.271204 0.962517 -0.002956
vn -0.271204 0.962517 -0.002956
vn 0.010595 0.884540 -0.466344
vn 0.010595 0.884540 -0.466344
vn 0.010595 0.884540 -0.466344
vn 0.225754 0.525728 -0.820150
vn 0.225754 0.525728 -0.820150
vn 0.225754 0.525728 -0.820150
vn 0.305962 0.000000 -0.952044
vn 0.305962 0.000000 -0.952044
vn 0.305962 0.000000 -0.952044
vn 0.225754 -0.525727 -0.820150
vn 0.225754 -0.525727 -0.820150
vn 0.225754 -0.525727 -0.820150
vn 0.010595 -0.884540 -0.466344
vn 0.010595 -0.884540 -0.466344
vn 0.010595 -0.884540 -0.466344
vn -0.271203 -0.962517 -0.002957
vn -0.271203 -0.962517 -0.002957
vn -0.271204 -0.962518 -0.002957
vn -0.530172 -0.734902 0.422890
vn -0.530172 -0.734902 0.422890
vn -0.530172 -0.734902 0.422890
vn -0.684091 -0.273961 0.675992
vn -0.684091 -0.273961 0.675992
vn -0.684091 -0.273961 0.675992
vn -0.684091 0.273961 0.675992
vn -0.684091 0.273961 0.675992
vn -0.684091 0.273961 0.675992
s off
g pasted__pCone1 group2
f 25/49/89 35/59/90 34/58/91 33/57/92 32/56/93 31/55/94 30/54/95 29/53/96 28/52/97 27/51/98 26/50/99
f 25/60/100 26/61/101 36/72/102
f 26/61/103 27/62/104 36/72/105
f 27/62/106 28/63/107 36/72/108
f 28/63/109 29/64/110 36/72/111
f 29/64/112 30/65/113 36/72/114
f 30/65/115 31/66/116 36/72/117
f 31/66/118 32/67/119 36/72/120
f 32/67/121 33/68/122 36/72/123
f 33/68/124 34/69/125 36/72/126
f 34/69/127 35/70/128 36/72/129
f 35/70/130 25/71/131 36/72/132
