# This file uses centimeters as units for non-parametric coordinates.

g default
v 0.155843 -0.043774 0.015778
v 0.138239 -0.084302 0.015778
v 0.110354 -0.118577 0.015778
v 0.074256 -0.144059 0.015778
v 0.032621 -0.158856 0.015778
v -0.011462 -0.161871 0.015778
v -0.054724 -0.152881 0.015778
v -0.093956 -0.132553 0.015778
v -0.126248 -0.102394 0.015778
v -0.149207 -0.064640 0.015778
v -0.161128 -0.022093 0.015778
v -0.161128 0.022093 0.015778
v -0.149207 0.064640 0.015778
v -0.126248 0.102394 0.015778
v -0.093956 0.132553 0.015778
v -0.054724 0.152881 0.015778
v -0.011462 0.161871 0.015778
v 0.032621 0.158856 0.015778
v 0.074255 0.144059 0.015778
v 0.110354 0.118578 0.015778
v 0.138239 0.084302 0.015778
v 0.155843 0.043774 0.015778
v 0.161859 -0.000000 0.015778
v 0.192255 -0.053923 0.019371
v 0.170570 -0.103847 0.019371
v 0.136220 -0.146069 0.019371
v 0.091752 -0.177457 0.019371
v 0.040465 -0.195685 0.019371
v -0.013838 -0.199399 0.019371
v -0.067130 -0.188325 0.019371
v -0.115457 -0.163284 0.019371
v -0.155237 -0.126133 0.019371
v -0.183518 -0.079627 0.019371
v -0.198203 -0.027215 0.019371
v -0.198203 0.027215 0.019371
v -0.183518 0.079627 0.019371
v -0.155237 0.126133 0.019371
v -0.115457 0.163284 0.019371
v -0.067130 0.188325 0.019371
v -0.013838 0.199399 0.019371
v 0.040465 0.195685 0.019371
v 0.091752 0.177458 0.019371
v 0.136220 0.146069 0.019371
v 0.170570 0.103847 0.019371
v 0.192255 0.053923 0.019371
v 0.199667 -0.000000 0.019371
v 0.226997 -0.063601 0.032784
v 0.201420 -0.122486 0.032784
v 0.160904 -0.172286 0.032784
v 0.108455 -0.209309 0.032784
v 0.047963 -0.230808 0.032784
v -0.016087 -0.235189 0.032784
v -0.078944 -0.222128 0.032784
v -0.135946 -0.192592 0.032784
v -0.182865 -0.148772 0.032784
v -0.216222 -0.093919 0.032784
v -0.233543 -0.032100 0.032784
v -0.233543 0.032100 0.032784
v -0.216223 0.093919 0.032784
v -0.182865 0.148772 0.032784
v -0.135946 0.192592 0.032784
v -0.078944 0.222128 0.032784
v -0.016087 0.235190 0.032784
v 0.047963 0.230808 0.032784
v 0.108455 0.209309 0.032784
v 0.160904 0.172287 0.032784
v 0.201420 0.122486 0.032784
v 0.226997 0.063602 0.032784
v 0.235739 0.000000 0.032784
v 0.302663 -0.084802 0.032784
v 0.268560 -0.163315 0.032784
v 0.214539 -0.229715 0.032784
v 0.144607 -0.279079 0.032784
v 0.063950 -0.307744 0.032784
v -0.021450 -0.313586 0.032784
v -0.105259 -0.296170 0.032784
v -0.181261 -0.256789 0.032784
v -0.243821 -0.198363 0.032784
v -0.288297 -0.125225 0.032784
v -0.311391 -0.042800 0.032784
v -0.311391 0.042800 0.032784
v -0.288297 0.125225 0.032784
v -0.243821 0.198363 0.032784
v -0.181261 0.256789 0.032784
v -0.105259 0.296170 0.032784
v -0.021450 0.313586 0.032784
v 0.063950 0.307745 0.032784
v 0.144607 0.279079 0.032784
v 0.214539 0.229715 0.032784
v 0.268560 0.163315 0.032784
v 0.302663 0.084802 0.032784
v 0.314319 0.000000 0.032784
v 0.302863 -0.084961 0.015352
v 0.268696 -0.163621 0.015352
v 0.214574 -0.230147 0.015352
v 0.144510 -0.279603 0.015352
v 0.063702 -0.308322 0.015352
v -0.021859 -0.314175 0.015352
v -0.105825 -0.296727 0.015352
v -0.181970 -0.257271 0.015352
v -0.244647 -0.198735 0.015352
v -0.289207 -0.125460 0.015352
v -0.312345 -0.042880 0.015352
v -0.312345 0.042880 0.015352
v -0.289207 0.125460 0.015352
v -0.244647 0.198735 0.015352
v -0.181971 0.257271 0.015352
v -0.105825 0.296727 0.015352
v -0.021859 0.314175 0.015352
v 0.063701 0.308323 0.015352
v 0.144510 0.279603 0.015352
v 0.214573 0.230147 0.015352
v 0.268696 0.163622 0.015352
v 0.302863 0.084961 0.015352
v 0.314541 -0.000000 0.015352
v 0.151331 -0.042401 0.002390
v 0.134280 -0.081657 0.002390
v 0.107270 -0.114858 0.002390
v 0.072304 -0.139539 0.002390
v 0.031975 -0.153872 0.002390
v -0.010725 -0.156793 0.002390
v -0.052629 -0.148085 0.002390
v -0.090631 -0.128395 0.002390
v -0.121910 -0.099181 0.002390
v -0.144148 -0.062613 0.002390
v -0.155696 -0.021400 0.002390
v -0.155696 0.021400 0.002390
v -0.144148 0.062612 0.002390
v -0.121910 0.099181 0.002390
v -0.090631 0.128394 0.002390
v -0.052630 0.148085 0.002390
v -0.010725 0.156793 0.002390
v 0.031975 0.153872 0.002390
v 0.072304 0.139540 0.002390
v 0.107270 0.114858 0.002390
v 0.134280 0.081658 0.002390
v 0.151331 0.042401 0.002390
v 0.157159 -0.000000 0.002390
v 0.075666 -0.021201 0.000708
v 0.067140 -0.040829 0.000708
v 0.053635 -0.057429 0.000708
v 0.036152 -0.069770 0.000708
v 0.015988 -0.076936 0.000708
v -0.005362 -0.078397 0.000708
v -0.026315 -0.074043 0.000708
v -0.045315 -0.064197 0.000708
v -0.060955 -0.049591 0.000708
v -0.072074 -0.031306 0.000708
v -0.077848 -0.010700 0.000708
v -0.077848 0.010700 0.000708
v -0.072074 0.031306 0.000708
v -0.060955 0.049591 0.000708
v -0.045315 0.064197 0.000708
v -0.026315 0.074043 0.000708
v -0.005362 0.078397 0.000708
v 0.015988 0.076936 0.000708
v 0.036152 0.069770 0.000708
v 0.053635 0.057429 0.000708
v 0.067140 0.040829 0.000708
v 0.075666 0.021201 0.000708
v 0.078580 -0.000000 0.000708
v 0.000000 0.000000 0.007918
v 0.000000 -0.000000 0.000019
vt 0.560182 0.233138
vt 0.553401 0.217526
vt 0.542660 0.204323
vt 0.528754 0.194507
vt 0.512716 0.188807
vt 0.495735 0.187646
vt 0.479070 0.191109
vt 0.463957 0.198939
vt 0.451518 0.210557
vt 0.442674 0.225100
vt 0.438082 0.241490
vt 0.438082 0.258510
vt 0.442674 0.274900
vt 0.451518 0.289443
vt 0.463957 0.301061
vt 0.479070 0.308891
vt 0.495735 0.312354
vt 0.512716 0.311193
vt 0.528754 0.305493
vt 0.542660 0.295677
vt 0.553401 0.282474
vt 0.560182 0.266862
vt 0.562500 0.250000
vt 0.620365 0.216275
vt 0.606802 0.185052
vt 0.585319 0.158646
vt 0.557508 0.139014
vt 0.525432 0.127615
vt 0.491470 0.125291
vt 0.458140 0.132217
vt 0.427915 0.147879
vt 0.403036 0.171114
vt 0.385349 0.200200
vt 0.376164 0.232979
vt 0.376164 0.267021
vt 0.385349 0.299800
vt 0.403036 0.328886
vt 0.427915 0.352121
vt 0.458140 0.367783
vt 0.491470 0.374709
vt 0.525432 0.372386
vt 0.557508 0.360986
vt 0.585319 0.341354
vt 0.606802 0.314948
vt 0.620365 0.283725
vt 0.625000 0.250000
vt 0.680547 0.199413
vt 0.660204 0.152578
vt 0.627979 0.112968
vt 0.586262 0.083522
vt 0.538148 0.066422
vt 0.487205 0.062937
vt 0.437210 0.073326
vt 0.391873 0.096818
vt 0.354554 0.131671
vt 0.328023 0.175300
vt 0.314246 0.224469
vt 0.314246 0.275531
vt 0.328023 0.324700
vt 0.354554 0.368329
vt 0.391872 0.403182
vt 0.437210 0.426674
vt 0.487205 0.437063
vt 0.538148 0.433578
vt 0.586262 0.416478
vt 0.627979 0.387032
vt 0.660204 0.347422
vt 0.680547 0.300587
vt 0.687500 0.250000
vt 0.740729 0.182551
vt 0.713605 0.120104
vt 0.670638 0.067291
vt 0.615016 0.028029
vt 0.550864 0.005229
vt 0.482940 0.000583
vt 0.416280 0.014435
vt 0.355830 0.045758
vt 0.306072 0.092228
vt 0.270697 0.150400
vt 0.252329 0.215958
vt 0.252329 0.284042
vt 0.270697 0.349600
vt 0.306072 0.407772
vt 0.355830 0.454242
vt 0.416280 0.485565
vt 0.482939 0.499417
vt 0.550864 0.494771
vt 0.615016 0.471971
vt 0.670638 0.432709
vt 0.713605 0.379896
vt 0.740729 0.317449
vt 0.750000 0.250000
vt 0.250000 0.500000
vt 0.271739 0.500000
vt 0.293478 0.500000
vt 0.315217 0.500000
vt 0.336957 0.500000
vt 0.358696 0.500000
vt 0.380435 0.500000
vt 0.402174 0.500000
vt 0.423913 0.500000
vt 0.445652 0.500000
vt 0.467391 0.500000
vt 0.489130 0.500000
vt 0.510870 0.500000
vt 0.532609 0.500000
vt 0.554348 0.500000
vt 0.576087 0.500000
vt 0.597826 0.500000
vt 0.619565 0.500000
vt 0.641304 0.500000
vt 0.663043 0.500000
vt 0.684783 0.500000
vt 0.706522 0.500000
vt 0.728261 0.500000
vt 0.750000 0.500000
vt 0.312500 0.625000
vt 0.328804 0.625000
vt 0.345109 0.625000
vt 0.361413 0.625000
vt 0.377717 0.625000
vt 0.394022 0.625000
vt 0.410326 0.625000
vt 0.426630 0.625000
vt 0.442935 0.625000
vt 0.459239 0.625000
vt 0.475543 0.625000
vt 0.491848 0.625000
vt 0.508152 0.625000
vt 0.524457 0.625000
vt 0.540761 0.625000
vt 0.557065 0.625000
vt 0.573370 0.625000
vt 0.589674 0.625000
vt 0.605978 0.625000
vt 0.622283 0.625000
vt 0.638587 0.625000
vt 0.654891 0.625000
vt 0.671196 0.625000
vt 0.687500 0.625000
vt 0.375000 0.750000
vt 0.385870 0.750000
vt 0.396739 0.750000
vt 0.407609 0.750000
vt 0.418478 0.750000
vt 0.429348 0.750000
vt 0.440217 0.750000
vt 0.451087 0.750000
vt 0.461957 0.750000
vt 0.472826 0.750000
vt 0.483696 0.750000
vt 0.494565 0.750000
vt 0.505435 0.750000
vt 0.516304 0.750000
vt 0.527174 0.750000
vt 0.538043 0.750000
vt 0.548913 0.750000
vt 0.559783 0.750000
vt 0.570652 0.750000
vt 0.581522 0.750000
vt 0.592391 0.750000
vt 0.603261 0.750000
vt 0.614130 0.750000
vt 0.625000 0.750000
vt 0.437500 0.875000
vt 0.442935 0.875000
vt 0.448370 0.875000
vt 0.453804 0.875000
vt 0.459239 0.875000
vt 0.464674 0.875000
vt 0.470109 0.875000
vt 0.475543 0.875000
vt 0.480978 0.875000
vt 0.486413 0.875000
vt 0.491848 0.875000
vt 0.497283 0.875000
vt 0.502717 0.875000
vt 0.508152 0.875000
vt 0.513587 0.875000
vt 0.519022 0.875000
vt 0.524457 0.875000
vt 0.529891 0.875000
vt 0.535326 0.875000
vt 0.540761 0.875000
vt 0.546196 0.875000
vt 0.551631 0.875000
vt 0.557065 0.875000
vt 0.562500 0.875000
vt 0.500000 0.250000
vt 0.500000 1.000000
vn -0.063749 0.017868 0.997806
vn -0.056564 0.034411 0.997806
vn -0.210858 0.128267 0.969065
vn -0.237520 0.066569 0.969099
vn -0.045183 0.048402 0.997805
vn -0.168566 0.180563 0.969011
vn -0.030449 0.058805 0.997805
vn -0.113717 0.219595 0.968941
vn -0.013454 0.064847 0.997805
vn -0.050312 0.242444 0.968860
vn 0.004542 0.066080 0.997804
vn 0.016989 0.247363 0.968774
vn 0.022203 0.062412 0.997804
vn 0.083204 0.233920 0.968689
vn 0.038220 0.054115 0.997803
vn 0.143396 0.203048 0.968612
vn 0.051405 0.041803 0.997803
vn 0.193045 0.156998 0.968548
vn 0.060779 0.026390 0.997802
vn 0.228399 0.099178 0.968503
vn 0.065646 0.009020 0.997802
vn 0.246776 0.033909 0.968479
vn 0.065646 -0.009020 0.997802
vn 0.246776 -0.033909 0.968479
vn 0.060779 -0.026390 0.997802
vn 0.228399 -0.099178 0.968503
vn 0.051405 -0.041803 0.997803
vn 0.193045 -0.156997 0.968548
vn 0.038220 -0.054115 0.997803
vn 0.143396 -0.203048 0.968612
vn 0.022203 -0.062412 0.997804
vn 0.083204 -0.233919 0.968689
vn 0.004542 -0.066080 0.997804
vn 0.016989 -0.247363 0.968774
vn -0.013454 -0.064847 0.997805
vn -0.050312 -0.242444 0.968860
vn -0.030449 -0.058805 0.997805
vn -0.113717 -0.219595 0.968941
vn -0.045183 -0.048402 0.997805
vn -0.168566 -0.180563 0.969011
vn -0.056564 -0.034411 0.997806
vn -0.210857 -0.128267 0.969065
vn -0.063749 -0.017868 0.997806
vn -0.237520 -0.066569 0.969099
vn -0.066204 0.000000 0.997806
vn -0.246627 0.000000 0.969110
vn -0.074406 0.045221 0.996202
vn -0.083833 0.023477 0.996203
vn -0.059467 0.063627 0.996200
vn -0.040113 0.077331 0.996198
vn -0.017772 0.085315 0.996196
vn 0.005906 0.086977 0.996193
vn 0.029166 0.082187 0.996190
vn 0.050279 0.071290 0.996188
vn 0.067671 0.055090 0.996186
vn 0.080044 0.034787 0.996184
vn 0.086471 0.011891 0.996183
vn 0.086471 -0.011891 0.996183
vn 0.080044 -0.034787 0.996184
vn 0.067671 -0.055090 0.996186
vn 0.050279 -0.071290 0.996188
vn 0.029166 -0.082187 0.996190
vn 0.005906 -0.086977 0.996193
vn -0.017772 -0.085315 0.996196
vn -0.040113 -0.077331 0.996198
vn -0.059467 -0.063627 0.996200
vn -0.074406 -0.045221 0.996202
vn -0.083833 -0.023477 0.996203
vn -0.087053 -0.000000 0.996204
vn 0.000000 0.000000 1.000000
vn 0.000000 0.000000 1.000000
vn -0.000000 0.000000 1.000000
vn 0.000000 0.000000 1.000000
vn -0.000000 0.000000 1.000000
vn -0.000000 0.000000 1.000000
vn 0.000000 0.000000 1.000000
vn 0.000000 0.000000 1.000000
vn 0.000000 0.000000 1.000000
vn 0.000000 0.000000 1.000000
vn 0.000000 0.000000 1.000000
vn -0.000000 0.000000 1.000000
vn -0.000000 0.000000 1.000000
vn 0.000000 0.000000 1.000000
vn 0.000000 0.000000 1.000000
vn -0.000000 0.000000 1.000000
vn 0.000000 0.000000 1.000000
vn 0.000000 0.000000 1.000000
vn 0.000000 0.000000 1.000000
vn 0.000000 0.000000 1.000000
vn 0.000000 0.000000 1.000000
vn -0.000000 0.000000 1.000000
vn -0.000000 0.000000 1.000000
vn 0.962963 -0.269297 0.013497
vn 0.854807 -0.518706 0.015784
vn 0.202707 -0.123455 -0.971426
vn 0.228521 -0.064115 -0.971425
vn 0.683402 -0.729784 0.019411
vn 0.161831 -0.173607 -0.971428
vn 0.461373 -0.886879 0.024105
vn 0.108946 -0.210847 -0.971429
vn 0.205119 -0.978292 0.029519
vn 0.047991 -0.232418 -0.971431
vn -0.066382 -0.997171 0.035260
vn -0.016499 -0.236738 -0.971433
vn -0.332980 -0.942047 0.040893
vn -0.079740 -0.223504 -0.971436
vn -0.574853 -0.816963 0.045995
vn -0.137047 -0.193717 -0.971438
vn -0.774006 -0.631185 0.050203
vn -0.184188 -0.149598 -0.971440
vn -0.915623 -0.398502 0.053200
vn -0.217685 -0.094421 -0.971441
vn -0.989166 -0.136208 0.054752
vn -0.235073 -0.032268 -0.971442
vn -0.989166 0.136207 0.054752
vn -0.235073 0.032268 -0.971442
vn -0.915623 0.398502 0.053199
vn -0.217685 0.094421 -0.971441
vn -0.774006 0.631184 0.050202
vn -0.184188 0.149598 -0.971440
vn -0.574854 0.816962 0.045992
vn -0.137047 0.193717 -0.971438
vn -0.332981 0.942047 0.040891
vn -0.079740 0.223504 -0.971436
vn -0.066383 0.997171 0.035260
vn -0.016500 0.236738 -0.971433
vn 0.205118 0.978292 0.029521
vn 0.047991 0.232418 -0.971431
vn 0.461373 0.886879 0.024103
vn 0.108945 0.210847 -0.971429
vn 0.683401 0.729785 0.019409
vn 0.161831 0.173607 -0.971428
vn 0.854806 0.518707 0.015784
vn 0.202707 0.123455 -0.971426
vn 0.962963 0.269296 0.013497
vn 0.228521 0.064115 -0.971425
vn 0.999919 -0.000000 0.012716
vn 0.237347 -0.000000 -0.971425
vn 0.061177 -0.037195 -0.997434
vn 0.068957 -0.019317 -0.997433
vn 0.048860 -0.052302 -0.997435
vn 0.032924 -0.063517 -0.997438
vn 0.014561 -0.070009 -0.997440
vn -0.004865 -0.071304 -0.997443
vn -0.023910 -0.067313 -0.997445
vn -0.041167 -0.058338 -0.997448
vn -0.055360 -0.045049 -0.997450
vn -0.065444 -0.028432 -0.997451
vn -0.070679 -0.009716 -0.997452
vn -0.070679 0.009716 -0.997452
vn -0.065444 0.028432 -0.997451
vn -0.055360 0.045049 -0.997450
vn -0.041167 0.058338 -0.997448
vn -0.023910 0.067313 -0.997445
vn -0.004865 0.071304 -0.997443
vn 0.014561 0.070009 -0.997440
vn 0.032924 0.063517 -0.997438
vn 0.048859 0.052302 -0.997435
vn 0.061177 0.037195 -0.997434
vn 0.068957 0.019317 -0.997433
vn 0.071617 -0.000000 -0.997432
vn 0.015921 -0.009681 -0.999826
vn 0.017942 -0.005027 -0.999826
vn 0.012718 -0.013618 -0.999826
vn 0.008572 -0.016544 -0.999826
vn 0.003791 -0.018243 -0.999826
vn -0.001272 -0.018590 -0.999826
vn -0.006240 -0.017557 -0.999826
vn -0.010745 -0.015223 -0.999826
vn -0.014454 -0.011759 -0.999826
vn -0.017091 -0.007423 -0.999826
vn -0.018460 -0.002537 -0.999826
vn -0.018460 0.002537 -0.999826
vn -0.017091 0.007423 -0.999826
vn -0.014454 0.011759 -0.999826
vn -0.010745 0.015223 -0.999826
vn -0.006240 0.017557 -0.999826
vn -0.001272 0.018590 -0.999826
vn 0.003791 0.018243 -0.999826
vn 0.008572 0.016544 -0.999826
vn 0.012718 0.013618 -0.999826
vn 0.015921 0.009681 -0.999826
vn 0.017942 0.005027 -0.999826
vn 0.018633 -0.000000 -0.999826
vn -0.000058 0.000000 1.000000
vn -0.000000 -0.000000 -1.000000
s 1
g pCone1
f 1/1/1 2/2/2 25/25/3 24/24/4
f 2/2/2 3/3/5 26/26/6 25/25/3
f 3/3/5 4/4/7 27/27/8 26/26/6
f 4/4/7 5/5/9 28/28/10 27/27/8
f 5/5/9 6/6/11 29/29/12 28/28/10
f 6/6/11 7/7/13 30/30/14 29/29/12
f 7/7/13 8/8/15 31/31/16 30/30/14
f 8/8/15 9/9/17 32/32/18 31/31/16
f 9/9/17 10/10/19 33/33/20 32/32/18
f 10/10/19 11/11/21 34/34/22 33/33/20
f 11/11/21 12/12/23 35/35/24 34/34/22
f 12/12/23 13/13/25 36/36/26 35/35/24
f 13/13/25 14/14/27 37/37/28 36/36/26
f 14/14/27 15/15/29 38/38/30 37/37/28
f 15/15/29 16/16/31 39/39/32 38/38/30
f 16/16/31 17/17/33 40/40/34 39/39/32
f 17/17/33 18/18/35 41/41/36 40/40/34
f 18/18/35 19/19/37 42/42/38 41/41/36
f 19/19/37 20/20/39 43/43/40 42/42/38
f 20/20/39 21/21/41 44/44/42 43/43/40
f 21/21/41 22/22/43 45/45/44 44/44/42
f 22/22/43 23/23/45 46/46/46 45/45/44
f 23/23/45 1/1/1 24/24/4 46/46/46
f 24/24/4 25/25/3 48/48/47 47/47/48
f 25/25/3 26/26/6 49/49/49 48/48/47
f 26/26/6 27/27/8 50/50/50 49/49/49
f 27/27/8 28/28/10 51/51/51 50/50/50
f 28/28/10 29/29/12 52/52/52 51/51/51
f 29/29/12 30/30/14 53/53/53 52/52/52
f 30/30/14 31/31/16 54/54/54 53/53/53
f 31/31/16 32/32/18 55/55/55 54/54/54
f 32/32/18 33/33/20 56/56/56 55/55/55
f 33/33/20 34/34/22 57/57/57 56/56/56
f 34/34/22 35/35/24 58/58/58 57/57/57
f 35/35/24 36/36/26 59/59/59 58/58/58
f 36/36/26 37/37/28 60/60/60 59/59/59
f 37/37/28 38/38/30 61/61/61 60/60/60
f 38/38/30 39/39/32 62/62/62 61/61/61
f 39/39/32 40/40/34 63/63/63 62/62/62
f 40/40/34 41/41/36 64/64/64 63/63/63
f 41/41/36 42/42/38 65/65/65 64/64/64
f 42/42/38 43/43/40 66/66/66 65/65/65
f 43/43/40 44/44/42 67/67/67 66/66/66
f 44/44/42 45/45/44 68/68/68 67/67/67
f 45/45/44 46/46/46 69/69/69 68/68/68
f 46/46/46 24/24/4 47/47/48 69/69/69
f 47/47/48 48/48/47 71/71/70 70/70/71
f 48/48/47 49/49/49 72/72/72 71/71/70
f 49/49/49 50/50/50 73/73/73 72/72/72
f 50/50/50 51/51/51 74/74/74 73/73/73
f 51/51/51 52/52/52 75/75/75 74/74/74
f 52/52/52 53/53/53 76/76/76 75/75/75
f 53/53/53 54/54/54 77/77/77 76/76/76
f 54/54/54 55/55/55 78/78/78 77/77/77
f 55/55/55 56/56/56 79/79/79 78/78/78
f 56/56/56 57/57/57 80/80/80 79/79/79
f 57/57/57 58/58/58 81/81/81 80/80/80
f 58/58/58 59/59/59 82/82/82 81/81/81
f 59/59/59 60/60/60 83/83/83 82/82/82
f 60/60/60 61/61/61 84/84/84 83/83/83
f 61/61/61 62/62/62 85/85/85 84/84/84
f 62/62/62 63/63/63 86/86/86 85/85/85
f 63/63/63 64/64/64 87/87/87 86/86/86
f 64/64/64 65/65/65 88/88/88 87/87/87
f 65/65/65 66/66/66 89/89/89 88/88/88
f 66/66/66 67/67/67 90/90/90 89/89/89
f 67/67/67 68/68/68 91/91/91 90/90/90
f 68/68/68 69/69/69 92/92/92 91/91/91
f 69/69/69 47/47/48 70/70/71 92/92/92
s 2
f 70/93/93 71/94/94 94/118/95 93/117/96
f 71/94/94 72/95/97 95/119/98 94/118/95
f 72/95/97 73/96/99 96/120/100 95/119/98
f 73/96/99 74/97/101 97/121/102 96/120/100
f 74/97/101 75/98/103 98/122/104 97/121/102
f 75/98/103 76/99/105 99/123/106 98/122/104
f 76/99/105 77/100/107 100/124/108 99/123/106
f 77/100/107 78/101/109 101/125/110 100/124/108
f 78/101/109 79/102/111 102/126/112 101/125/110
f 79/102/111 80/103/113 103/127/114 102/126/112
f 80/103/113 81/104/115 104/128/116 103/127/114
f 81/104/115 82/105/117 105/129/118 104/128/116
f 82/105/117 83/106/119 106/130/120 105/129/118
f 83/106/119 84/107/121 107/131/122 106/130/120
f 84/107/121 85/108/123 108/132/124 107/131/122
f 85/108/123 86/109/125 109/133/126 108/132/124
f 86/109/125 87/110/127 110/134/128 109/133/126
f 87/110/127 88/111/129 111/135/130 110/134/128
f 88/111/129 89/112/131 112/136/132 111/135/130
f 89/112/131 90/113/133 113/137/134 112/136/132
f 90/113/133 91/114/135 114/138/136 113/137/134
f 91/114/135 92/115/137 115/139/138 114/138/136
f 92/115/137 70/116/93 93/140/96 115/139/138
f 93/117/96 94/118/95 117/142/139 116/141/140
f 94/118/95 95/119/98 118/143/141 117/142/139
f 95/119/98 96/120/100 119/144/142 118/143/141
f 96/120/100 97/121/102 120/145/143 119/144/142
f 97/121/102 98/122/104 121/146/144 120/145/143
f 98/122/104 99/123/106 122/147/145 121/146/144
f 99/123/106 100/124/108 123/148/146 122/147/145
f 100/124/108 101/125/110 124/149/147 123/148/146
f 101/125/110 102/126/112 125/150/148 124/149/147
f 102/126/112 103/127/114 126/151/149 125/150/148
f 103/127/114 104/128/116 127/152/150 126/151/149
f 104/128/116 105/129/118 128/153/151 127/152/150
f 105/129/118 106/130/120 129/154/152 128/153/151
f 106/130/120 107/131/122 130/155/153 129/154/152
f 107/131/122 108/132/124 131/156/154 130/155/153
f 108/132/124 109/133/126 132/157/155 131/156/154
f 109/133/126 110/134/128 133/158/156 132/157/155
f 110/134/128 111/135/130 134/159/157 133/158/156
f 111/135/130 112/136/132 135/160/158 134/159/157
f 112/136/132 113/137/134 136/161/159 135/160/158
f 113/137/134 114/138/136 137/162/160 136/161/159
f 114/138/136 115/139/138 138/163/161 137/162/160
f 115/139/138 93/140/96 116/164/140 138/163/161
f 116/141/140 117/142/139 140/166/162 139/165/163
f 117/142/139 118/143/141 141/167/164 140/166/162
f 118/143/141 119/144/142 142/168/165 141/167/164
f 119/144/142 120/145/143 143/169/166 142/168/165
f 120/145/143 121/146/144 144/170/167 143/169/166
f 121/146/144 122/147/145 145/171/168 144/170/167
f 122/147/145 123/148/146 146/172/169 145/171/168
f 123/148/146 124/149/147 147/173/170 146/172/169
f 124/149/147 125/150/148 148/174/171 147/173/170
f 125/150/148 126/151/149 149/175/172 148/174/171
f 126/151/149 127/152/150 150/176/173 149/175/172
f 127/152/150 128/153/151 151/177/174 150/176/173
f 128/153/151 129/154/152 152/178/175 151/177/174
f 129/154/152 130/155/153 153/179/176 152/178/175
f 130/155/153 131/156/154 154/180/177 153/179/176
f 131/156/154 132/157/155 155/181/178 154/180/177
f 132/157/155 133/158/156 156/182/179 155/181/178
f 133/158/156 134/159/157 157/183/180 156/182/179
f 134/159/157 135/160/158 158/184/181 157/183/180
f 135/160/158 136/161/159 159/185/182 158/184/181
f 136/161/159 137/162/160 160/186/183 159/185/182
f 137/162/160 138/163/161 161/187/184 160/186/183
f 138/163/161 116/164/140 139/188/163 161/187/184
s 1
f 2/2/2 1/1/1 162/189/185
f 3/3/5 2/2/2 162/189/185
f 4/4/7 3/3/5 162/189/185
f 5/5/9 4/4/7 162/189/185
f 6/6/11 5/5/9 162/189/185
f 7/7/13 6/6/11 162/189/185
f 8/8/15 7/7/13 162/189/185
f 9/9/17 8/8/15 162/189/185
f 10/10/19 9/9/17 162/189/185
f 11/11/21 10/10/19 162/189/185
f 12/12/23 11/11/21 162/189/185
f 13/13/25 12/12/23 162/189/185
f 14/14/27 13/13/25 162/189/185
f 15/15/29 14/14/27 162/189/185
f 16/16/31 15/15/29 162/189/185
f 17/17/33 16/16/31 162/189/185
f 18/18/35 17/17/33 162/189/185
f 19/19/37 18/18/35 162/189/185
f 20/20/39 19/19/37 162/189/185
f 21/21/41 20/20/39 162/189/185
f 22/22/43 21/21/41 162/189/185
f 23/23/45 22/22/43 162/189/185
f 1/1/1 23/23/45 162/189/185
s 2
f 139/165/163 140/166/162 163/190/186
f 140/166/162 141/167/164 163/190/186
f 141/167/164 142/168/165 163/190/186
f 142/168/165 143/169/166 163/190/186
f 143/169/166 144/170/167 163/190/186
f 144/170/167 145/171/168 163/190/186
f 145/171/168 146/172/169 163/190/186
f 146/172/169 147/173/170 163/190/186
f 147/173/170 148/174/171 163/190/186
f 148/174/171 149/175/172 163/190/186
f 149/175/172 150/176/173 163/190/186
f 150/176/173 151/177/174 163/190/186
f 151/177/174 152/178/175 163/190/186
f 152/178/175 153/179/176 163/190/186
f 153/179/176 154/180/177 163/190/186
f 154/180/177 155/181/178 163/190/186
f 155/181/178 156/182/179 163/190/186
f 156/182/179 157/183/180 163/190/186
f 157/183/180 158/184/181 163/190/186
f 158/184/181 159/185/182 163/190/186
f 159/185/182 160/186/183 163/190/186
f 160/186/183 161/187/184 163/190/186
f 161/187/184 139/188/163 163/190/186
